<svg width="70" height="75" viewBox="0 0 70 75" fill="none" xmlns="http://www.w3.org/2000/svg">
<g clip-path="url(#clip0_3_524)">
<path d="M68.7303 28.1255C68.4731 27.832 68.1024 27.6806 67.725 27.6806H63.5826C61.9098 20.3244 57.9982 13.6581 52.4738 8.79606C46.5526 3.58543 39.0518 0.714017 31.3508 0.709717C31.2241 0.709717 31.0961 0.738527 30.988 0.809191C30.6965 0.999968 30.592 1.36547 30.7022 1.67794L34.4001 12.1653C34.4987 12.4452 34.7504 12.6305 35.0316 12.6305C43.7764 12.6305 51.4386 18.8699 53.8006 27.6806H50.2438C49.8662 27.6806 49.4957 27.832 49.2385 28.1255C48.7537 28.6788 48.7562 29.4898 49.1809 30.0314L57.9482 41.2115C58.2045 41.5383 58.5842 41.7274 58.9845 41.7274C59.3848 41.7274 59.7644 41.5385 60.0208 41.2115L68.788 30.0314C69.2126 29.4898 69.2149 28.6788 68.7303 28.1255Z" fill="#507BE9"/>
<path d="M30.6593 34.3933C38.8535 34.3933 45.4962 27.3342 45.4962 18.6265C45.4962 9.91876 38.8535 2.85974 30.6593 2.85974C22.4651 2.85974 15.8224 9.91876 15.8224 18.6265C15.8224 27.3342 22.4651 34.3933 30.6593 34.3933Z" fill="#FFEE78"/>
<path d="M45.4963 18.6265C45.4963 9.91881 38.8535 2.85974 30.6593 2.85974V34.3933C38.8535 34.3933 45.4963 27.3342 45.4963 18.6265Z" fill="#FCD232"/>
<path d="M30.6593 36.5433C21.3627 36.5433 13.7992 28.5058 13.7992 18.6265C13.7992 8.74718 21.3627 0.709717 30.6593 0.709717C39.956 0.709717 47.5195 8.74718 47.5195 18.6265C47.5195 28.5058 39.956 36.5433 30.6593 36.5433ZM30.6593 5.00974C23.5939 5.00974 17.8456 11.1182 17.8456 18.6265C17.8456 26.1348 23.5939 32.2432 30.6593 32.2432C37.7248 32.2432 43.473 26.1348 43.473 18.6265C43.473 11.1182 37.7248 5.00974 30.6593 5.00974Z" fill="#FCD232"/>
<path d="M43.473 18.6265C43.473 26.1348 37.7248 32.2432 30.6593 32.2432V36.5433C39.956 36.5433 47.5195 28.5058 47.5195 18.6265C47.5195 8.74718 39.956 0.709717 30.6593 0.709717V5.00974C37.7248 5.00974 43.473 11.1182 43.473 18.6265Z" fill="#F7B90F"/>
<path d="M36.0546 22.2098C36.0546 19.0485 33.6343 16.4765 30.6593 16.4765C29.9156 16.4765 29.3105 15.8335 29.3105 15.0431C29.3105 14.2528 29.9156 13.6098 30.6593 13.6098C31.2981 13.6098 31.8538 14.0911 31.9806 14.7543C32.2029 15.9179 33.2716 16.6697 34.3661 16.4335C35.4611 16.1971 36.1686 15.0622 35.9463 13.8985C35.5793 11.9784 34.3176 10.439 32.6826 9.73146V9.30977C32.6826 8.12239 31.7767 7.15976 30.6593 7.15976C29.542 7.15976 28.6361 8.12239 28.6361 9.30977V9.7296C26.6611 10.582 25.2641 12.6419 25.2641 15.0431C25.2641 18.2045 27.6844 20.7765 30.6593 20.7765C31.4031 20.7765 32.0081 21.4195 32.0081 22.2098C32.0081 23.0002 31.4031 23.6432 30.6593 23.6432C30.0205 23.6432 29.4648 23.1619 29.338 22.4987C29.1158 21.3351 28.0479 20.5836 26.9525 20.8195C25.8574 21.0559 25.1501 22.1908 25.3724 23.3545C25.7394 25.2746 27.0011 26.8142 28.636 27.5217V27.9432C28.636 29.1306 29.5418 30.0932 30.6592 30.0932C31.7766 30.0932 32.6824 29.1306 32.6824 27.9432V27.5234C34.6576 26.671 36.0546 24.611 36.0546 22.2098Z" fill="#FCD232"/>
<path d="M30.6593 16.4765V20.7765C31.4031 20.7765 32.0081 21.4195 32.0081 22.2098C32.0081 23.0002 31.4031 23.6432 30.6593 23.6432V30.0932C31.7767 30.0932 32.6826 29.1306 32.6826 27.9432V27.5234C34.6576 26.671 36.0546 24.6111 36.0546 22.2098C36.0546 19.0485 33.6343 16.4765 30.6593 16.4765Z" fill="#F7B90F"/>
<path d="M31.9806 14.7543C32.2029 15.9179 33.2716 16.6697 34.3661 16.4335C35.4611 16.1971 36.1686 15.0622 35.9463 13.8985C35.5793 11.9784 34.3176 10.439 32.6826 9.73146V9.30977C32.6826 8.12239 31.7767 7.15976 30.6593 7.15976V13.6098C31.2981 13.6098 31.8538 14.0911 31.9806 14.7543Z" fill="#F7B90F"/>
<path d="M68.2462 51.0122C66.7508 48.7426 63.8072 48.1911 61.6714 49.7802L47.1995 60.5486C46.6326 60.9704 45.9574 61.1966 45.2655 61.1966H34.5709V71.23H46.1159C48.192 71.23 50.2176 70.5513 51.9182 69.2858L67.0868 57.999C69.2226 56.4098 69.7418 53.2817 68.2462 51.0122Z" fill="#FABE8C"/>
<path d="M47.1995 60.5489C46.6326 60.9708 45.9574 61.1969 45.2655 61.1969L34.5709 60.3157V65.497H45.4963C50.3305 65.497 54.2635 61.3175 54.2635 56.1802C54.2635 55.8906 54.2492 55.6045 54.2248 55.3215L47.1995 60.5489Z" fill="#E6A578"/>
<path d="M68.2462 51.0123C66.7508 48.7427 63.8072 48.1912 61.6714 49.7803L49.5002 58.8369C49.9539 58.0662 50.2171 57.156 50.2171 56.18C50.2171 53.4094 48.1035 51.1633 45.4963 51.1633H34.0314L32.7117 50.1115C30.0835 48.0169 26.827 46.8633 23.5417 46.8633C20.7722 46.8633 18.0532 47.6635 15.6785 49.1777C15.6785 49.1777 13.4286 50.6124 12.0837 51.4698C11.4743 51.8584 11.1016 52.5581 11.1016 53.3133V69.0801C11.1016 70.2675 12.0075 71.2301 13.1248 71.2301H46.1159C48.192 71.2301 50.2176 70.5514 51.9182 69.2859L67.0868 57.9991C69.2226 56.4099 69.7418 53.2818 68.2462 51.0123Z" fill="#FFD2AA"/>
<path d="M34.5709 71.23H46.1159C48.192 71.23 50.2176 70.5513 51.9182 69.2858L67.0868 57.999C69.2225 56.4098 69.7415 53.2817 68.2461 51.0122C66.7507 48.7426 63.807 48.1911 61.6713 49.7802L49.5001 58.8368C49.9539 58.0661 50.2171 57.1559 50.2171 56.1799C50.2171 53.4093 48.1035 51.1632 45.4963 51.1632H34.5709V71.23Z" fill="#FABE8C"/>
<path d="M54.2248 55.3215L49.5002 58.8371C49.4709 58.8868 49.4417 58.9367 49.4108 58.9852C48.5625 60.3196 47.1257 61.1969 45.4963 61.1969H31.3337C30.2164 61.1969 29.3105 62.1596 29.3105 63.347C29.3105 64.5343 30.2164 65.497 31.3337 65.497H45.4963C50.3305 65.497 54.2635 61.3175 54.2635 56.1802C54.2635 55.8906 54.2492 55.6045 54.2248 55.3215Z" fill="#FABE8C"/>
<path d="M13.1248 74.0968H2.06457C0.947212 74.0968 0.0413513 73.1342 0.0413513 71.9468V47.58C0.0413513 46.3926 0.947212 45.43 2.06457 45.43H13.1248C14.2422 45.43 15.148 46.3926 15.148 47.58V71.9468C15.148 73.1342 14.2422 74.0968 13.1248 74.0968Z" fill="#6496F7"/>
<path d="M54.2248 55.3215L49.5002 58.8371C49.4709 58.8868 49.4417 58.9367 49.4108 58.9852C48.5625 60.3196 47.1258 61.1969 45.4963 61.1969H34.5709V65.497H45.4963C50.3305 65.497 54.2635 61.3175 54.2635 56.1802C54.2635 55.8906 54.2492 55.6045 54.2248 55.3215Z" fill="#E6A578"/>
</g>
<defs>
<clipPath id="clip0_3_524">
<rect width="69.0591" height="73.3871" fill="white" transform="translate(0.0413513 0.709717)"/>
</clipPath>
</defs>
</svg>
