<svg width="94" height="94" viewBox="0 0 94 94" fill="none" xmlns="http://www.w3.org/2000/svg">
<g clip-path="url(#clip0_10_2237)">
<path d="M94 47C94 46.429 93.9897 45.8602 93.9697 45.2942C93.0717 20.127 72.3864 0 47 0C21.6136 0 0.92825 20.127 0.0304766 45.2942C0.0102812 45.8602 0 46.429 0 47C0 72.9574 24.1429 92.2944 47 92.2944C70.2712 92.2944 94 72.9574 94 47Z" fill="#395093"/>
<path d="M47 90.5886C21.6139 90.5886 0.932289 70.461 0.0341484 45.2942C0.0137695 45.8608 0 46.4286 0 47C0 72.9574 21.0426 94 47 94C72.9574 94 94 72.9574 94 47C94 46.4286 93.9862 45.8608 93.966 45.2944C93.0677 70.4612 72.3861 90.5886 47 90.5886Z" fill="#3D559D"/>
<path d="M86.1823 45.2942C85.2893 24.4256 68.0884 7.78101 46.9999 7.78101C25.9114 7.78101 8.71053 24.4256 7.81753 45.2942C7.79329 45.8598 7.81734 83.7242 46.9999 83.7242C86.1825 83.7242 86.2065 45.8598 86.1823 45.2942Z" fill="white"/>
<path d="M47.0002 82.8075C25.9119 82.8075 8.71372 66.1626 7.82036 45.2942C7.79612 45.86 7.78125 46.4281 7.78125 46.9998C7.78125 68.6598 25.3402 86.2187 47.0002 86.2187C68.6602 86.2187 86.2191 68.66 86.2191 47C86.2191 46.4282 86.2041 45.86 86.18 45.2944C85.2866 66.1627 68.0885 82.8075 47.0002 82.8075Z" fill="#D5E0F2"/>
<path d="M61.2455 33.2398C60.1276 32.1373 58.3277 32.1496 57.2254 33.2673L50.5547 40.0304L51.225 43.25L54.3409 44.2881L61.2733 37.2599C62.3755 36.1422 62.3632 34.3423 61.2455 33.2398Z" fill="#405B6C"/>
<path d="M42.9757 40.2891L27.8472 26.8074C26.675 25.7628 24.8782 25.8663 23.8337 27.0386C22.7892 28.2106 22.8926 30.0076 24.0648 31.0521L39.4913 44.7992L42.7059 43.727L42.9757 40.2891Z" fill="#405B6C"/>
<path d="M67.1285 65.3295C66.8057 65.3295 66.4815 65.2203 66.2149 64.9965L48.2093 49.8724C47.6084 49.3675 47.5302 48.4708 48.0351 47.8699C48.54 47.2687 49.4365 47.1906 50.0377 47.6957L68.0433 62.82C68.6442 63.3248 68.7224 64.2215 68.2175 64.8224C67.9365 65.1571 67.5338 65.3295 67.1285 65.3295Z" fill="#86DCFF"/>
<path d="M39.4912 44.7992L42.146 47.165L45.5553 46.0065L45.3704 42.423L42.9758 40.2891C41.3097 41.2902 40.0486 42.8943 39.4912 44.7992Z" fill="#2D4456"/>
<path d="M50.555 40.0305L48.2979 42.3188V46.8106H51.8533L54.3414 44.2882C53.6577 42.4384 52.2941 40.9195 50.555 40.0305Z" fill="#2D4456"/>
<path d="M51.5496 45.294C50.8589 43.4525 49.0822 42.1418 46.9996 42.1418C44.9169 42.1418 43.1402 43.4525 42.4496 45.294C42.2505 45.8247 42.4363 50.1522 46.9996 50.1522C51.5628 50.1522 51.7486 45.8247 51.5496 45.294Z" fill="#395093"/>
<path d="M46.9997 48.4467C44.917 48.4467 43.1411 47.1359 42.4504 45.2944C42.2512 45.8252 42.1416 46.3997 42.1416 47C42.1416 49.6831 44.3166 51.8579 46.9995 51.8579C49.6825 51.8579 51.8574 49.6829 51.8574 47C51.8574 46.3997 51.7478 45.8252 51.5488 45.2944C50.8583 47.1357 49.0824 48.4467 46.9997 48.4467Z" fill="#3D559D"/>
<path d="M48.4235 17.1793V12.7681C48.4235 11.9816 47.7859 11.344 46.9993 11.344C46.2128 11.344 45.5752 11.9816 45.5752 12.7681V17.1793C45.5752 17.9659 46.2126 18.6035 46.9993 18.6035C47.786 18.6035 48.4235 17.9659 48.4235 17.1793Z" fill="#405B6C"/>
<path d="M45.5752 76.8206V81.2318C45.5752 82.0183 46.2126 82.656 46.9993 82.656C47.786 82.656 48.4235 82.0183 48.4235 81.2318V76.8206C48.4235 76.0341 47.7859 75.3965 46.9993 75.3965C46.2128 75.3965 45.5752 76.0341 45.5752 76.8206Z" fill="#405B6C"/>
<path d="M81.2318 48.424C82.0185 48.424 82.656 47.7863 82.656 46.9998C82.656 46.2133 82.0183 45.5757 81.2318 45.5757H76.8206C76.0341 45.5757 75.3965 46.2133 75.3965 46.9998C75.3965 47.7863 76.0341 48.424 76.8206 48.424H81.2318Z" fill="#405B6C"/>
<path d="M12.7679 45.5757C11.9812 45.5757 11.3438 46.2133 11.3438 46.9998C11.3438 47.7863 11.9812 48.424 12.7679 48.424H17.1791C17.9658 48.424 18.6032 47.7863 18.6032 46.9998C18.6032 46.2133 17.9656 45.5757 17.1791 45.5757H12.7679Z" fill="#405B6C"/>
</g>
<defs>
<clipPath id="clip0_10_2237">
<rect width="94" height="94" fill="white"/>
</clipPath>
</defs>
</svg>
