<svg width="70" height="74" viewBox="0 0 70 74" fill="none" xmlns="http://www.w3.org/2000/svg">
<g clip-path="url(#clip0_3_465)">
<path d="M17.8427 41.7034V53.7043H57.5335C58.6675 53.7043 59.5868 52.7273 59.5868 51.5223C59.5868 50.4629 59.5868 42.7608 59.5868 41.7034L38.7147 38.794L17.8427 41.7034Z" fill="#8B9BA9"/>
<path d="M55.4801 41.1216V49.3404H17.8427V53.7044H57.5335C58.6675 53.7044 59.5868 52.7274 59.5868 51.5224C59.5868 50.5184 59.5868 42.6883 59.5868 41.7035L55.4801 41.1216Z" fill="#6C7A88"/>
<path d="M61.4353 12.9491H24.0035C22.8695 12.9491 21.9502 13.9261 21.9502 15.1311V21.9309H8.25677C6.33598 21.9309 4.67172 23.3459 4.25025 25.3374L2.69618 32.6813C2.29702 34.5677 2.09552 36.4954 2.09552 38.4289V53.7041H21.9502C21.9502 53.349 21.9502 47.9522 21.9502 41.7032H61.4354C62.5694 41.7032 63.4887 40.7262 63.4887 39.5212V15.1311C63.4886 13.9259 62.5694 12.9491 61.4353 12.9491Z" fill="#FF7E40"/>
<path d="M68.9644 32.3326H63.4887V28.4172H66.2266C66.7937 28.4172 67.2532 27.9287 67.2532 27.3262C67.2532 26.7236 66.7937 26.2352 66.2266 26.2352H63.4887V22.3197H67.5954C68.1625 22.3197 68.6221 21.8312 68.6221 21.2287C68.6221 20.6262 68.1625 20.1377 67.5954 20.1377H63.4887V16.2221H68.9644C69.5315 16.2221 69.9911 15.7336 69.9911 15.1311C69.9911 14.5286 69.5315 14.0401 68.9644 14.0401H63.2118C62.8566 13.3886 62.195 12.9491 61.4354 12.9491H59.3821V37.3394H21.9502C21.9502 29.6636 21.9502 22.138 21.9502 21.9307H17.8436V41.7033H14.7637C11.7705 41.7033 9.0477 42.9495 7.02479 44.9763H2.09552V53.7042H21.9502C21.9502 53.4082 21.9502 47.9867 21.9502 41.7033H34.6059H61.4354C62.195 41.7033 62.8566 41.2639 63.2118 40.6124H67.5954C68.1625 40.6124 68.6221 40.1239 68.6221 39.5214C68.6221 38.9189 68.1625 38.4304 67.5954 38.4304H63.4887V34.5148H68.9644C69.5315 34.5148 69.9911 34.0263 69.9911 33.4238C69.9911 32.8213 69.5315 32.3326 68.9644 32.3326Z" fill="#FF6344"/>
<path d="M1.95827 53.704H9.47278V49.34H1.95827C1.39129 49.34 0.931625 49.8285 0.931625 50.431V52.613C0.931625 53.2157 1.39129 53.704 1.95827 53.704Z" fill="#8B9BA9"/>
<path d="M17.8435 26.2946H8.01178L6.05965 35.5196H17.8435V26.2946Z" fill="#9DC6FB"/>
<path d="M13.9818 31.1557H6.98308L6.05965 35.5196H17.8435V26.2946H13.9818V31.1557Z" fill="#80B4FB"/>
<path d="M49.6626 61.3409C53.6316 61.3409 56.8491 57.9217 56.8491 53.704C56.8491 49.4862 53.6316 46.067 49.6626 46.067C45.6936 46.067 42.4761 49.4862 42.4761 53.704C42.4761 57.9217 45.6936 61.3409 49.6626 61.3409Z" fill="#4D5967"/>
<path d="M51.1323 46.2281C50.29 47.8819 50.5255 49.9918 51.841 51.3895L47.4853 56.0182C46.17 54.6203 44.1846 54.3698 42.6282 55.2652C43.3082 58.7297 46.2039 61.3408 49.6631 61.3408C53.6259 61.3408 56.8497 57.915 56.8497 53.7039C56.8495 50.0278 54.3926 46.9508 51.1323 46.2281Z" fill="#35404A"/>
<path d="M49.6623 56.9771C51.3633 56.9771 52.7422 55.5118 52.7422 53.7041C52.7422 51.8965 51.3633 50.4312 49.6623 50.4312C47.9613 50.4312 46.5824 51.8965 46.5824 53.7041C46.5824 55.5118 47.9613 56.9771 49.6623 56.9771Z" fill="#FFF9EB"/>
<path d="M14.7634 61.3409C18.7324 61.3409 21.9499 57.9217 21.9499 53.704C21.9499 49.4862 18.7324 46.067 14.7634 46.067C10.7944 46.067 7.57684 49.4862 7.57684 53.704C7.57684 57.9217 10.7944 61.3409 14.7634 61.3409Z" fill="#4D5967"/>
<path d="M16.2329 46.2281C15.3905 47.8819 15.6261 49.9918 16.9416 51.3895L12.5859 56.0182C11.2706 54.6203 9.28515 54.3698 7.72876 55.2652C8.40881 58.7297 11.3045 61.3408 14.7637 61.3408C18.7265 61.3408 21.9503 57.915 21.9503 53.7039C21.9503 50.0278 19.4933 46.9508 16.2329 46.2281Z" fill="#35404A"/>
<path d="M14.7631 56.9771C16.4641 56.9771 17.843 55.5118 17.843 53.7041C17.843 51.8965 16.4641 50.4312 14.7631 50.4312C13.0621 50.4312 11.6832 51.8965 11.6832 53.7041C11.6832 55.5118 13.0621 56.9771 14.7631 56.9771Z" fill="#FFF9EB"/>
<path d="M32.3384 25.1448V26.2358H33.6386C34.2056 26.2358 34.665 26.724 34.665 27.3266C34.665 27.9293 34.2056 28.4176 33.6386 28.4176H32.3384V30.5993C32.3384 31.202 31.8787 31.6903 31.3119 31.6903C30.745 31.6903 30.2855 31.2021 30.2855 30.5993V24.0541C30.2855 23.4516 30.745 22.9634 31.3119 22.9634H34.4598C35.0268 22.9634 35.4862 23.4516 35.4862 24.0541C35.4862 24.6568 35.0268 25.1451 34.4598 25.1451L32.3384 25.1448Z" fill="#FFF9EB"/>
<path d="M42.1222 29.8309C42.5211 30.2585 42.5185 30.9493 42.1161 31.3735C41.9157 31.5843 41.6545 31.6897 41.3932 31.6897C41.129 31.6897 40.8649 31.5821 40.6643 31.367L38.9296 29.5081H38.3821V30.5988C38.3821 31.2014 37.9224 31.6897 37.3556 31.6897C36.7888 31.6897 36.3292 31.2016 36.3292 30.5988V24.0536C36.3292 23.451 36.7888 22.9629 37.3556 22.9629H39.3576C41.046 22.9629 42.4198 24.431 42.4198 26.2354C42.4198 27.2999 41.9414 28.247 41.2024 28.8452L42.1222 29.8309ZM40.3667 26.2354C40.3667 25.6337 39.9139 25.1444 39.3576 25.1444H38.3821V27.3261H39.3576C39.9139 27.3261 40.3667 26.8367 40.3667 26.2354Z" fill="#FFF9EB"/>
<path d="M48.7826 30.5986C48.7826 31.2012 48.3232 31.6896 47.7562 31.6896H44.6082C44.0414 31.6896 43.5818 31.2014 43.5818 30.5986V24.0534C43.5818 23.4509 44.0414 22.9627 44.6082 22.9627H47.7562C48.3232 22.9627 48.7826 23.4509 48.7826 24.0534C48.7826 24.656 48.3232 25.1444 47.7562 25.1444H45.6347V26.2354H46.935C47.502 26.2354 47.9614 26.7235 47.9614 27.3262C47.9614 27.9289 47.502 28.4172 46.935 28.4172H45.6347V29.508H47.7562C48.3232 29.5079 48.7826 29.9961 48.7826 30.5986Z" fill="#FFF9EB"/>
<path d="M55.1526 30.5986C55.1526 31.2012 54.6932 31.6896 54.1262 31.6896H50.9783C50.4114 31.6896 49.9519 31.2014 49.9519 30.5986V24.0534C49.9519 23.4509 50.4114 22.9627 50.9783 22.9627H54.1262C54.6932 22.9627 55.1526 23.4509 55.1526 24.0534C55.1526 24.656 54.6932 25.1444 54.1262 25.1444H52.0048V26.2354H53.3051C53.872 26.2354 54.3314 26.7235 54.3314 27.3262C54.3314 27.9289 53.872 28.4172 53.3051 28.4172H52.0048V29.508H54.1262C54.6932 29.5079 55.1526 29.9961 55.1526 30.5986Z" fill="#FFF9EB"/>
</g>
<defs>
<clipPath id="clip0_3_465">
<rect width="69.0591" height="73.3871" fill="white" transform="translate(0.931641 0.45166)"/>
</clipPath>
</defs>
</svg>
