<svg width="50" height="33" viewBox="0 0 50 33" fill="none" xmlns="http://www.w3.org/2000/svg">
<rect x="0.518555" y="1.4165" width="48.4342" height="30.5198" rx="3.5" fill="white" stroke="#B2BCCA"/>
<path fill-rule="evenodd" clip-rule="evenodd" d="M24.9958 23.019C23.2743 24.3298 21.0411 25.121 18.601 25.121C13.1561 25.121 8.74219 21.1815 8.74219 16.3217C8.74219 11.462 13.1561 7.52246 18.601 7.52246C21.0411 7.52246 23.2743 8.31374 24.9958 9.62449C26.7174 8.31374 28.9505 7.52246 31.3907 7.52246C36.8355 7.52246 41.2495 11.462 41.2495 16.3217C41.2495 21.1815 36.8355 25.121 31.3907 25.121C28.9505 25.121 26.7174 24.3298 24.9958 23.019Z" fill="#ED0006"/>
<path fill-rule="evenodd" clip-rule="evenodd" d="M24.9961 23.0191C27.1159 21.4051 28.4601 19.0035 28.4601 16.3217C28.4601 13.64 27.1159 11.2384 24.9961 9.62443C26.7176 8.31371 28.9507 7.52246 31.3909 7.52246C36.8357 7.52246 41.2497 11.462 41.2497 16.3217C41.2497 21.1815 36.8357 25.121 31.3909 25.121C28.9507 25.121 26.7176 24.3298 24.9961 23.0191Z" fill="#F9A000"/>
<path fill-rule="evenodd" clip-rule="evenodd" d="M24.9961 23.019C27.1158 21.405 28.46 19.0035 28.46 16.3217C28.46 13.64 27.1158 11.2385 24.9961 9.62451C22.8763 11.2385 21.5322 13.64 21.5322 16.3217C21.5322 19.0035 22.8763 21.405 24.9961 23.019Z" fill="#FD6020"/>
</svg>
