<svg width="43" height="32" viewBox="0 0 43 32" fill="none" xmlns="http://www.w3.org/2000/svg">
<rect x="0.926758" y="0.958008" width="41.5" height="30.5198" rx="3.5" fill="white" stroke="#B2BCCA"/>
<path fill-rule="evenodd" clip-rule="evenodd" d="M18.6945 24.6866L18.9704 22.7834L18.3558 22.7679H15.4209L17.4606 8.72365C17.4669 8.68112 17.4875 8.64164 17.5175 8.61356C17.5476 8.58547 17.586 8.57007 17.6262 8.57007H22.575C24.218 8.57007 25.3517 8.94126 25.9436 9.67402C26.2211 10.0178 26.3979 10.3771 26.4835 10.7724C26.5732 11.1872 26.5746 11.6828 26.4871 12.2873L26.4808 12.3313V12.7187L26.7583 12.8894C26.992 13.0241 27.1777 13.1781 27.3202 13.3545C27.5575 13.6485 27.7111 14.0221 27.7759 14.4649C27.843 14.9203 27.8209 15.4624 27.7111 16.0761C27.5844 16.7819 27.3797 17.3967 27.1032 17.8997C26.8491 18.3631 26.5251 18.7476 26.1405 19.0455C25.7732 19.3286 25.337 19.5435 24.8437 19.681C24.3656 19.8161 23.8206 19.8843 23.2228 19.8843H22.8377C22.5624 19.8843 22.2949 19.992 22.0849 20.1851C21.8743 20.3821 21.7351 20.6514 21.6924 20.9459L21.6633 21.1173L21.1758 24.4719L21.1537 24.5949C21.1478 24.6339 21.1378 24.6534 21.123 24.6665C21.1099 24.6786 21.0909 24.6866 21.0725 24.6866H18.6945" fill="#28356A"/>
<path fill-rule="evenodd" clip-rule="evenodd" d="M27.0218 12.376C27.0072 12.4785 26.9902 12.5833 26.9713 12.691C26.3187 16.3298 24.0859 17.5868 21.2343 17.5868H19.7824C19.4336 17.5868 19.1397 17.8617 19.0854 18.2353L18.1315 24.8062C18.0962 25.0516 18.2703 25.2726 18.4982 25.2726H21.0734C21.3783 25.2726 21.6373 25.032 21.6853 24.7054L21.7106 24.5634L22.1955 21.222L22.2267 21.0388C22.2741 20.7111 22.5338 20.4703 22.8386 20.4703H23.2237C25.7187 20.4703 27.6719 19.3704 28.2428 16.1871C28.4812 14.8573 28.3578 13.747 27.7268 12.9661C27.5358 12.7306 27.2989 12.5352 27.0218 12.376" fill="#2F80ED"/>
<path fill-rule="evenodd" clip-rule="evenodd" d="M26.3388 12.0805C26.239 12.0489 26.1362 12.0204 26.0306 11.9945C25.9245 11.9693 25.8159 11.947 25.704 11.9274C25.3126 11.8587 24.8836 11.8262 24.4241 11.8262H20.5453C20.4497 11.8262 20.359 11.8496 20.2778 11.892C20.0989 11.9854 19.966 12.1693 19.9338 12.3944L19.1086 18.07L19.085 18.2355C19.1392 17.8619 19.4331 17.587 19.7819 17.587H21.2338C24.0854 17.587 26.3182 16.3293 26.9708 12.6912C26.9903 12.5835 27.0067 12.4787 27.0214 12.3761C26.8563 12.281 26.6775 12.1996 26.4849 12.1303C26.4373 12.1131 26.3883 12.0966 26.3388 12.0805" fill="#28356A"/>
<path fill-rule="evenodd" clip-rule="evenodd" d="M19.9336 12.3944C19.9658 12.1692 20.0986 11.9853 20.2776 11.8926C20.3593 11.85 20.4495 11.8266 20.5451 11.8266H24.4239C24.8833 11.8266 25.3123 11.8593 25.7038 11.928C25.8157 11.9474 25.9243 11.9699 26.0304 11.9951C26.1359 12.0208 26.2388 12.0495 26.3385 12.081C26.388 12.097 26.4371 12.1137 26.4851 12.1302C26.6777 12.1996 26.8566 12.2816 27.0217 12.3761C27.2159 11.0314 27.0201 10.1159 26.3506 9.28683C25.6125 8.37401 24.2804 7.9834 22.5757 7.9834H17.6268C17.2787 7.9834 16.9816 8.2583 16.9278 8.63255L14.8666 22.8212C14.826 23.1019 15.0253 23.3551 15.286 23.3551H18.3412L19.9336 12.3944" fill="#28356A"/>
</svg>
