<svg width="70" height="74" viewBox="0 0 70 74" fill="none" xmlns="http://www.w3.org/2000/svg">
<g clip-path="url(#clip0_3_491)">
<path d="M17.0906 41.705L8.76025 66.807L17.1414 66.7203L27.4775 41.705H17.0906Z" fill="#80AAFF"/>
<path d="M27.4771 41.705L20.9726 68.1189L27.5236 73.8391L34.6794 51.5897V41.705H27.4771Z" fill="#80AAFF"/>
<path d="M25.2154 41.705L17.1418 66.7203L19.3455 66.6976L20.9734 68.1189L29.4984 41.705H25.2154Z" fill="#EAF1FF"/>
<path d="M52.2696 41.705L60.5999 66.807L52.2188 66.7203L41.8827 41.705H52.2696Z" fill="#6680FF"/>
<path d="M41.8826 41.705L48.3871 68.1189L41.8361 73.8391L34.6803 51.5897V41.705H41.8826Z" fill="#6680FF"/>
<path d="M44.1447 41.705L52.2183 66.7203L50.0145 66.6976L48.3867 68.1189L39.8616 41.705H44.1447Z" fill="#B3CCFF"/>
<path d="M34.679 2.60388L33.2385 26.4739L34.679 49.4352C46.8485 49.4352 56.7138 38.9517 56.7138 26.0196C56.7138 13.0874 46.8485 2.60388 34.679 2.60388Z" fill="#EAF1FF"/>
<path d="M12.6444 26.0196C12.6444 38.9517 22.5096 49.4352 34.6791 49.4352V2.60388C22.5096 2.60388 12.6444 13.0874 12.6444 26.0196Z" fill="#F9F9F9"/>
<path d="M58.7394 26.02C58.7394 11.9215 47.9459 0.45166 34.679 0.45166L33.2385 1.98246L34.679 4.75689C45.712 4.75689 54.6881 14.2954 54.6881 26.02C54.6881 37.7444 45.712 47.283 34.679 47.283L33.2385 49.4356L34.679 51.5882C47.9459 51.5882 58.7394 40.1183 58.7394 26.02Z" fill="#FDAE02"/>
<path d="M34.6794 47.283C23.6464 47.283 14.6704 37.7444 14.6704 26.02C14.6704 14.2954 23.6464 4.75689 34.6794 4.75689V0.45166C21.4125 0.45166 10.6191 11.9215 10.6191 26.02C10.6191 40.1183 21.4125 51.5882 34.6794 51.5882V47.283Z" fill="#FDCB02"/>
<path d="M46.789 17.494L40.4819 19.6856L34.6799 14.4699L33.2396 24.9432L34.6799 35.7541H46.789V17.494Z" fill="#FD9002"/>
<path d="M34.68 14.4699L28.8782 19.6856L22.5711 17.494V35.7541H34.68V14.4699Z" fill="#FDAE02"/>
</g>
<defs>
<clipPath id="clip0_3_491">
<rect width="69.0591" height="73.3871" fill="white" transform="translate(0.150208 0.45166)"/>
</clipPath>
</defs>
</svg>
