<svg width="723" height="727" viewBox="0 0 723 727" fill="none" xmlns="http://www.w3.org/2000/svg">
<path d="M620.945 422.467C596.91 457.117 555.701 477.484 512.033 477.484H149.592C76.742 477.484 35.891 396.534 83.137 350.951C130.382 305.367 88.6514 266.436 161.525 229.884C232.125 194.471 256.229 269.956 321.267 220.564C386.307 171.173 480.996 175.833 501.8 226.156C522.603 276.479 517.702 294.189 561.826 305.37C605.951 316.551 649.095 379.921 622.62 419.993C622.069 420.828 621.51 421.652 620.945 422.467Z" fill="#BDE9C8"/>
<path d="M604.833 436.514C566.651 439.592 540.912 507.612 445.463 466.727C445.463 466.727 455.944 437.034 502.895 418.525C549.844 400.016 604.833 436.514 604.833 436.514Z" fill="#C8DDF5"/>
<path d="M458.496 461.634C468.461 456.71 478.797 452.465 489.353 448.773C491.979 447.814 494.642 446.95 497.314 446.11C499.974 445.235 502.668 444.459 505.358 443.668C508.038 442.847 510.767 442.18 513.486 441.48C514.846 441.135 516.202 440.77 517.569 440.444L521.679 439.507L525.8 438.609L529.95 437.833L534.101 437.058C535.485 436.806 536.882 436.61 538.276 436.408C541.068 436.017 543.848 435.572 546.66 435.317C549.468 435.04 552.26 434.655 555.085 434.555C566.329 433.779 577.699 433.955 588.786 435.738C577.555 435.48 566.42 436.111 555.377 437.405L553.304 437.629L551.242 437.93L547.113 438.503C544.357 438.838 541.627 439.364 538.891 439.834C537.526 440.088 536.149 440.27 534.786 440.54L530.701 441.345L526.617 442.153L522.557 443.078L518.488 443.962C517.134 444.269 515.791 444.618 514.442 444.944L510.397 445.938C509.047 446.263 507.718 446.66 506.37 446.996C503.682 447.697 500.99 448.382 498.327 449.17C495.66 449.941 492.975 450.663 490.318 451.474C479.659 454.629 469.095 458.103 458.496 461.634Z" fill="#BDE9C8"/>
<path d="M609.506 320.76C562.918 352.409 584.469 458.474 428.998 475.175C428.998 475.175 418.619 429.419 464.082 371.585C509.544 313.75 609.506 320.76 609.506 320.76Z" fill="#BDE9C8"/>
<path d="M439.342 462.396C446.123 448.434 454.492 435.155 463.908 422.586C473.296 409.991 483.823 398.139 495.288 387.162C506.768 376.206 519.206 366.102 532.666 357.38C546.084 348.661 560.56 341.159 576 336.485C561.67 343.627 548.391 352.115 535.778 361.425C523.213 370.786 511.331 380.94 500.074 391.693C488.809 402.443 478.194 413.806 468.09 425.605C458.019 437.437 448.552 449.752 439.342 462.396Z" fill="#C8DDF5"/>
<path d="M106.942 427.061C144.802 432.686 165.436 502.259 263.678 467.864C263.678 467.864 255.423 437.543 209.961 415.939C164.498 394.333 106.942 427.061 106.942 427.061Z" fill="#C8DDF5"/>
<path d="M251.053 461.912C240.742 457.682 230.461 453.509 220.063 449.647C217.472 448.66 214.848 447.76 212.245 446.813C209.647 445.848 207.01 444.985 204.383 444.107C203.063 443.681 201.767 443.196 200.444 442.781L196.483 441.519C195.162 441.104 193.847 440.666 192.52 440.269L188.527 439.114L184.545 437.92L180.53 436.841L176.515 435.764C175.176 435.404 173.816 435.13 172.474 434.785C169.779 434.133 167.095 433.426 164.37 432.907L160.294 432.059L158.258 431.621L156.209 431.26C145.288 429.229 134.227 427.854 123.006 427.36C134.197 426.324 145.552 426.909 156.711 428.435C159.521 428.724 162.278 429.294 165.058 429.76C167.844 430.203 170.584 430.833 173.34 431.41C174.716 431.704 176.094 431.993 177.457 432.336L181.539 433.387L185.622 434.439L189.666 435.611L193.697 436.822C195.036 437.237 196.361 437.693 197.693 438.127C200.354 439.008 203.025 439.857 205.639 440.854C208.264 441.824 210.894 442.777 213.482 443.829C216.084 444.846 218.677 445.884 221.226 447.017C231.482 451.407 241.478 456.333 251.053 461.912Z" fill="#BDE9C8"/>
<path d="M132.109 315.889C174.061 348.867 146.151 448.081 292.414 473.811C292.414 473.811 305.479 431.08 266.44 373.34C227.4 315.601 132.109 315.889 132.109 315.889Z" fill="#BDE9C8"/>
<path d="M283.504 461.035C275.599 448.486 267.46 436.227 258.724 424.383C249.954 412.568 240.685 401.128 230.764 390.222C220.852 379.314 210.312 368.93 199.078 359.238C187.795 349.594 175.831 340.676 162.775 332.933C177.12 338.29 190.351 346.303 202.482 355.412C214.657 364.526 225.754 374.898 235.874 386.025C245.978 397.169 255.123 409.091 263.12 421.651C271.147 434.187 278.119 447.333 283.504 461.035Z" fill="#C8DDF5"/>
<path d="M378.821 408.251C373.569 414.179 368.81 424.005 365.856 425.565C362.902 427.125 357.921 427.667 353.213 442.067C348.506 456.465 372.27 454.494 372.27 454.494C372.27 454.494 382.432 448.948 386.535 435.548L396.71 426.969L378.821 408.251Z" fill="#FFA498"/>
<path d="M360.438 452.916C360.438 452.916 368.13 450.535 374.654 443.987C381.202 437.413 382.047 425.717 382.047 425.717L385.183 431.287L391.457 424.914L394.481 424.636L396.711 426.969L386.535 435.548C382.432 448.947 372.271 454.495 372.271 454.495C372.271 454.495 365.72 455.034 360.179 453.466C360.321 453.126 360.438 452.916 360.438 452.916Z" fill="#C57E75"/>
<path d="M414.449 356.679C407.17 361.736 402.827 365.406 399.208 372.284C395.588 379.164 372.906 403.881 371.459 406.085C370.01 408.289 384.206 431.68 395.567 437.413C395.567 437.413 412.72 418.607 422.613 411.5C432.506 404.39 429.129 379.164 424.544 370.679C419.959 362.194 414.449 356.679 414.449 356.679Z" fill="#DC466F"/>
<path d="M414.184 402.194V388.153C414.184 388.153 416.109 387.421 417.612 392.159C418.211 394.055 418.166 396.049 417.898 397.764L428.942 389.872C429.398 398.708 427.906 407.696 422.613 411.5C412.72 418.608 395.568 437.412 395.568 437.412C392.636 435.934 389.517 433.275 386.526 430.113C393.511 423.504 406.762 410.745 414.184 402.194Z" fill="#D12050"/>
<path d="M343.62 448.948C341.731 449.508 340.336 450.366 340.336 452.627C340.336 454.889 340.746 458.477 341.649 459.88C342.552 461.284 347.212 462.125 347.212 462.125C347.212 462.125 346.901 452.784 345.916 451.068C344.931 449.352 343.62 448.948 343.62 448.948Z" fill="#FFA498"/>
<path d="M341.648 459.881C341.395 459.486 341.183 458.909 341.006 458.247C342.017 459.192 342.357 459.199 343.595 459.323L347.134 460.372C347.188 461.424 347.212 462.126 347.212 462.126C347.212 462.126 342.551 461.285 341.648 459.881Z" fill="#C57E75"/>
<path d="M348.131 445.531C345.833 445.765 343.535 447.403 343.535 449.664C343.535 451.925 342.716 458.244 343.535 459.257C344.357 460.27 348.378 463.156 349.772 463.391C351.167 463.624 353.536 463.234 353.213 462.532C352.891 461.831 348.131 445.531 348.131 445.531Z" fill="#FFA498"/>
<path d="M343.187 457.559C344.928 459.428 349.383 459.26 349.383 459.26C349.383 459.26 351.341 461.248 351.583 461.886C351.728 462.271 352.53 462.779 352.639 463.172C351.904 463.439 350.646 463.538 349.772 463.391C348.403 463.161 344.52 460.388 343.595 459.323L343.187 457.564V457.559Z" fill="#C57E75"/>
<path d="M356.74 441.799C349.69 442.178 348.377 442.801 348.131 445.531C347.884 448.26 348.049 456.215 348.95 458.244C349.854 460.271 350.346 462.065 351.495 463.156C352.644 464.248 354.363 464.252 354.363 464.252C354.363 464.252 358.224 458.867 358.388 454.344C358.552 449.821 356.74 441.799 356.74 441.799Z" fill="#FFA498"/>
<path d="M352.685 459.771C353.043 457.919 353.836 455.944 353.936 449.745C353.974 447.416 356.246 459.578 355.232 462.916C354.726 463.744 354.363 464.252 354.363 464.252C354.363 464.252 352.645 464.248 351.496 463.155C350.347 462.064 349.855 460.27 348.951 458.243C348.893 458.11 348.838 457.951 348.785 457.773C349.245 458.91 350.706 459.657 352.685 459.771Z" fill="#C57E75"/>
<path d="M372.175 455.514C371.732 459.241 366.595 460.582 366.02 462.454C365.446 464.326 365.856 466.042 364.872 466.509C363.887 466.978 359.784 464.794 359.949 462.299C359.949 462.299 358.881 464.404 356.501 464.794C354.122 465.184 353.547 463.532 353.958 461.043C354.368 458.555 354.286 457.229 354.204 454.266C354.122 451.302 353.383 448.573 354.778 445.296C356.173 442.022 358.061 439.136 361.836 439.682C365.61 440.228 367.908 444.751 369.959 446.311C372.011 447.87 372.667 451.38 372.175 455.514Z" fill="#FFA498"/>
<path d="M359.948 462.298C360.178 457.559 360.438 453.68 360.438 452.915C360.438 452.15 360.178 447.12 362.06 446.815C362.345 446.768 366.483 449.26 366.563 450.942C366.644 452.624 366.563 455.644 365.277 456.503C363.99 457.364 359.948 462.298 359.948 462.298Z" fill="#C57E75"/>
<path d="M530.954 366.781C523.474 357.762 520.9 356.844 513.179 352.564C505.457 348.283 476.18 337.428 470.147 336.052C464.115 334.676 439.786 345.454 431.802 348.894C423.82 352.334 413.661 355.718 411.931 359.071C406.136 370.293 417.611 386.197 417.672 419.526C417.704 436.981 421.889 476.235 421.889 476.235C421.889 476.235 513.822 476.398 515.109 474.563C516.396 472.728 519.614 410.047 521.222 397.205C522.831 384.363 530.954 366.781 530.954 366.781Z" fill="#DC466F"/>
<path d="M412.268 376.642C411.579 374.532 411.17 372.383 410.825 370.226C410.511 368.064 410.263 365.894 410.297 363.685C410.988 365.794 411.398 367.943 411.739 370.1C412.053 372.262 412.3 374.432 412.268 376.642Z" fill="#D12050"/>
<path d="M446.647 363.513C443.095 362.252 434.68 364.446 433.141 364.954C431.603 365.463 434.046 359.214 434.951 358.44C435.855 357.666 437.304 355.864 440.079 356.679C442.854 357.494 445.186 360.513 445.588 361.508C445.99 362.501 446.647 363.513 446.647 363.513Z" fill="#D12050"/>
<path d="M476.241 368.73C474.975 368.673 467.584 365.443 465.816 364.64C464.046 363.838 456.03 363.463 450.647 364.892C450.647 364.892 461.01 358.239 467.042 358.296C473.074 358.354 475.367 360.416 475.849 362.252C476.332 364.086 476.241 368.73 476.241 368.73Z" fill="#D12050"/>
<path d="M436.721 462.18C437.708 461.262 497.748 463.098 498.955 457.135C500.16 451.173 500.991 440.329 500.991 440.329C493.763 443.998 483.27 442.47 483.27 442.47C490.267 440.299 500.402 429.387 500.884 426.176C502.372 416.286 496.811 389.018 496.811 389.018L500.884 381.229L505.651 378.706C505.651 378.706 514.687 382.983 522.415 390.851C521.894 393.029 521.476 395.176 521.222 397.205C519.706 409.313 516.759 465.712 515.349 473.663C496.753 474.314 463.042 475.487 440.486 476.223C429.557 476.249 421.888 476.235 421.888 476.235C421.888 476.235 421.748 471.072 421.419 463.667C427.711 463.318 436.11 462.748 436.721 462.18Z" fill="#D12050"/>
<path d="M448.914 365.175C455.392 364.433 465.804 359.098 469.907 360.933C474.009 362.767 474.973 367.468 475.818 368.271C476.662 369.073 480.282 365.06 480.282 355.2C480.282 345.338 480.6 335.241 472.961 333.87C465.322 332.496 445.536 339.606 441.554 342.472C437.573 345.338 435.883 348.242 434.799 351.033C433.712 353.823 430.817 365.06 432.144 365.175C433.471 365.29 437.211 357.951 439.986 357.722C442.761 357.493 447.16 365.376 448.914 365.175Z" fill="#DC466F"/>
<path d="M445.228 356.347C443.576 352.621 441.767 349.352 441.827 346.773C441.888 344.192 442.49 342.416 445.507 341.613C448.522 340.811 449.79 342.358 449.971 346.257C450.151 350.155 445.228 356.347 445.228 356.347Z" fill="#D12050"/>
<path d="M468.879 349.399C475.185 343.964 475.899 337.886 475.307 336.625C474.714 335.364 472.11 334.446 472.11 334.446C472.11 334.446 471.085 338.402 471.688 339.377C472.29 340.351 468.879 349.399 468.879 349.399Z" fill="#D12050"/>
<path d="M458.841 362.543C460.377 361.887 461.981 361.376 463.616 360.953C465.259 360.574 466.946 360.271 468.7 360.379C469.565 360.44 470.494 360.62 471.268 361.202C471.951 361.814 472.469 362.367 473.049 362.996C474.198 364.236 474.99 365.741 475.718 367.157C475.878 367.482 476.133 367.866 476.244 367.9C476.258 367.905 476.252 367.925 476.382 367.848C476.491 367.775 476.618 367.649 476.733 367.512C477.203 366.941 477.589 366.227 477.965 365.531C478.724 364.159 479.132 362.638 479.455 361.088C479.769 359.538 479.951 357.955 480.068 356.369C480.211 354.782 480.259 353.188 480.281 351.588C480.613 354.772 480.619 357.996 480.154 361.2C479.929 362.796 479.508 364.41 478.749 365.898C478.375 366.628 477.994 367.349 477.44 368.047C477.293 368.22 477.135 368.394 476.902 368.555C476.79 368.634 476.637 368.709 476.454 368.751C476.263 368.794 476.033 368.765 475.862 368.688C475.516 368.524 475.37 368.303 475.23 368.116C475.097 367.924 474.991 367.736 474.893 367.552C474.163 366.099 473.439 364.712 472.377 363.527C471.869 362.94 471.273 362.292 470.75 361.793C470.203 361.36 469.421 361.145 468.63 361.051C467.024 360.87 465.346 361.081 463.714 361.373C462.068 361.648 460.45 362.074 458.841 362.543Z" fill="#D12050"/>
<path d="M443.986 360.485C443.286 359.897 442.591 359.31 441.833 358.821C441.459 358.577 441.075 358.344 440.68 358.183C440.48 358.11 440.288 358.054 440.108 358.032C440.028 358.04 439.943 358.033 439.88 358.052C439.821 358.089 439.786 358.074 439.672 358.155C438.116 359.066 436.906 360.32 435.878 361.753C435.355 362.444 434.897 363.236 434.281 363.953C433.972 364.309 433.645 364.654 433.228 364.961C433.011 365.104 432.791 365.27 432.402 365.314C432.216 365.343 431.955 365.267 431.798 365.134C431.64 364.997 431.561 364.841 431.515 364.709C431.345 364.165 431.4 363.714 431.445 363.253C431.504 362.801 431.588 362.359 431.696 361.923C431.927 361.055 432.182 360.202 432.51 359.368C432.385 360.248 432.219 361.119 432.143 361.994C432.091 362.429 432.056 362.864 432.049 363.291C432.047 363.707 432.056 364.164 432.188 364.462C432.217 364.537 432.262 364.577 432.277 364.587C432.3 364.586 432.277 364.594 432.323 364.581C432.401 364.574 432.583 364.475 432.73 364.354C433.037 364.105 433.327 363.78 433.592 363.441C434.136 362.774 434.572 362.006 435.118 361.252C435.667 360.515 436.268 359.802 436.965 359.166C437.662 358.532 438.468 357.989 439.302 357.57C439.379 357.519 439.573 357.452 439.731 357.41C439.89 357.38 440.046 357.397 440.195 357.405C440.475 357.459 440.718 357.554 440.943 357.667C441.381 357.904 441.755 358.188 442.113 358.488C442.803 359.108 443.439 359.763 443.986 360.485Z" fill="#D12050"/>
<path d="M444.343 333.948C444.357 336.371 444.459 338.787 444.723 341.198C445.374 347.109 444.737 354.907 445.229 356.347C445.778 357.952 449.035 363.685 449.035 363.685C449.035 363.685 454.826 361.162 457.239 358.41C459.651 355.659 462.788 355.519 467.011 351.461C471.235 347.403 474.105 340.957 473.164 335.592C473.044 334.905 472.303 328.038 472.138 320.928C471.975 313.819 464.115 308.418 456.635 308.418C449.156 308.418 444.677 318.966 444.443 326.076C444.347 328.992 444.33 331.733 444.343 333.948Z" fill="#FFA498"/>
<path d="M472.138 320.929C472.303 328.038 473.043 334.905 473.164 335.593C473.455 337.252 473.38 339.014 473.014 340.777C471.359 341.067 450.057 341.555 444.537 339.113C444.411 337.395 444.354 335.674 444.343 333.949C444.33 331.733 444.347 328.994 444.443 326.076C444.543 323.063 445.407 319.433 446.937 316.249L464.461 310.346C468.763 312.527 472.034 316.373 472.138 320.929Z" fill="#C57E75"/>
<path d="M431.22 291.327C419.901 291.327 415.666 299.59 415.666 305.782C415.666 311.341 417.54 320.238 431.22 320.238C438.06 320.238 442.691 313.766 442.691 305.782C442.691 297.799 438.06 291.327 431.22 291.327Z" fill="#524787"/>
<path d="M430.72 294.867C422.173 294.867 418.975 301.106 418.975 305.783C418.975 309.979 420.389 316.699 430.72 316.699C435.886 316.699 439.382 311.812 439.382 305.783C439.382 299.754 435.886 294.867 430.72 294.867Z" fill="#38295C"/>
<path d="M416.94 296.206C417.608 299.975 419.572 301.416 420.449 306.497C421.325 311.578 418.987 318.962 422.474 325.393C425.962 331.825 431.601 340.279 434.859 340.637C438.117 340.994 464.211 336.805 473.016 320.165C475.543 315.389 480.945 296.659 476.323 285.222C471.7 273.786 464.181 263.306 446.805 262.988C429.429 262.67 413.396 276.229 416.94 296.206Z" fill="#FFA498"/>
<path d="M431.472 316.809C432.401 316.83 433.419 316.493 433.878 315.915C434.279 315.409 434.446 314.741 434.327 314.118C432.969 315.181 431.303 315.364 429.632 315.087C429.425 316.272 430.387 316.785 431.472 316.809Z" fill="#C57E75"/>
<path d="M462.212 296.206C461.55 292.286 458.794 290.023 458.794 290.023C458.794 290.023 452.152 287.402 447.015 286.926C441.876 286.45 436.613 285.021 436.613 285.021C436.613 285.021 438.243 288.942 440.999 290.613C440.999 290.613 428.719 290.023 424.834 286.569C424.834 286.569 425.586 289.416 426.338 291.327C426.338 291.327 420.323 290.736 418.444 288.474C418.444 288.474 416.94 293.457 416.94 296.206C416.94 296.206 409.714 286.807 411.552 279.344C413.389 271.881 415.895 269.022 415.895 269.022C415.895 269.022 410.716 269.498 407.875 269.022C407.875 269.022 414.559 263.464 419.572 259.813C424.584 256.16 439.621 256.002 439.621 256.002C439.621 256.002 438.451 252.191 439.787 246.157C439.787 246.157 446.22 255.128 453.029 257.867C459.838 260.606 458.92 260.374 466.14 262.105C473.359 263.837 480.221 268.228 483.103 271.92C485.985 275.612 489.119 279.423 490.998 280.019C490.998 280.019 486.486 279.423 484.232 277.636C484.232 277.636 487.992 285.756 483.021 296.206C478.05 306.656 465.594 303.564 463.179 301.257C460.765 298.95 462.212 296.206 462.212 296.206Z" fill="#4375F1"/>
<path d="M463.179 301.257C460.764 298.95 462.211 296.206 462.211 296.206C461.812 293.834 460.646 292.074 459.787 291.05C461.594 280.636 460.857 269.826 457.647 259.721C459.523 260.446 460.637 260.771 463.352 261.434C466.686 266.199 469.179 271.562 470.896 276.993C473.082 283.909 474.14 291.381 472.101 298.338C471.579 300.122 470.816 301.861 469.852 303.49C466.761 303.245 464.153 302.188 463.179 301.257Z" fill="#9A4234"/>
<path d="M466.581 292.325C466.581 292.325 467.44 266.204 453.029 257.868C453.029 257.868 464.181 256.677 470.572 267.276C476.963 277.876 476.531 286.966 476.37 292.062C476.209 297.156 466.581 292.325 466.581 292.325Z" fill="#524787"/>
<path d="M470.974 291.327C482.293 291.327 486.529 299.59 486.529 305.782C486.529 311.341 484.654 320.238 470.974 320.238C464.134 320.238 459.504 313.766 459.504 305.782C459.504 297.799 464.134 291.327 470.974 291.327Z" fill="#524787"/>
<path d="M464.872 305.783C464.872 298.696 469.795 292.95 475.868 292.95C481.94 292.95 486.529 298.696 486.529 305.783C486.529 312.871 481.94 318.617 475.868 318.617C469.795 318.617 464.872 312.871 464.872 305.783Z" fill="#C22373"/>
<path d="M469.836 305.782C469.836 300.959 473.185 297.049 477.318 297.049C481.451 297.049 484.801 300.959 484.801 305.782C484.801 310.606 481.451 314.516 477.318 314.516C473.185 314.516 469.836 310.606 469.836 305.782Z" fill="#D67AA8"/>
<path d="M442.284 320.238C439.226 321.838 429.235 322.373 428.556 322.284C427.876 322.195 429.271 329.405 431.718 329.671C434.165 329.939 439.059 329.316 441.098 327.448C443.136 325.581 442.284 320.238 442.284 320.238Z" fill="#C57E75"/>
<path d="M440.936 303.004C440.936 301.688 441.618 300.622 442.46 300.622C443.303 300.622 443.986 301.688 443.986 303.004C443.986 304.319 443.303 305.385 442.46 305.385C441.618 305.385 440.936 304.319 440.936 303.004Z" fill="#471052"/>
<path d="M423.491 304.115C423.491 302.8 424.078 301.734 424.802 301.734C425.526 301.734 426.113 302.8 426.113 304.115C426.113 305.431 425.526 306.497 424.802 306.497C424.078 306.497 423.491 305.431 423.491 304.115Z" fill="#471052"/>
<path d="M449.472 293.718C448.431 293.173 447.308 292.797 446.158 292.483C445.002 292.188 443.802 292.015 442.586 291.973C441.376 291.916 440.096 291.884 438.925 292.314C437.75 292.699 436.685 293.4 435.9 294.324L435.989 294.466C437.249 294.337 438.288 294.044 439.386 293.905C440.459 293.752 441.5 293.38 442.621 293.294C444.839 293.115 447.165 293.282 449.402 293.869L449.472 293.718Z" fill="#471052"/>
<path d="M419.081 296.796C419.625 296.596 420.197 296.47 420.766 296.408C421.334 296.335 421.902 296.309 422.464 296.303C423.03 296.295 423.594 296.487 424.145 296.359C424.424 296.299 424.709 296.248 424.999 296.133C425.292 296.038 425.59 295.915 425.911 295.702L425.929 295.538C425.383 295.032 424.766 294.816 424.14 294.708C423.507 294.595 422.88 294.836 422.272 294.994C421.661 295.146 421.063 295.349 420.499 295.622C419.947 295.914 419.405 296.218 418.975 296.667L419.081 296.796Z" fill="#471052"/>
<path d="M436.721 467.832C436.729 468.201 436.185 468.734 434.859 468.734H393.013C388.188 468.734 387.062 466.92 388.51 464.627C389.958 462.333 396.071 457.288 411.191 453.772C426.312 450.255 434.263 458.478 436.721 462.18C438.524 464.896 436.721 467.832 436.721 467.832Z" fill="#524787"/>
<path d="M388.154 465.315C388.986 467.945 420.915 466.574 420.915 466.574C420.915 466.574 417.677 462.417 414.099 462.298C410.519 462.18 408.778 463.362 403.979 464.147C399.179 464.931 402.737 462.291 402.737 462.291C402.737 462.291 399.346 461.577 397.966 460.56C397.966 460.56 405.875 458.339 409.193 457.823C412.509 457.307 420.956 457.65 422.041 457.823C422.809 457.944 426.707 455.793 431.415 456.873C434.045 458.699 435.784 460.767 436.722 462.18C438.525 464.895 436.722 467.831 436.722 467.831C436.728 468.2 436.185 468.734 434.859 468.734H393.014C388.684 468.734 387.34 467.272 388.154 465.315Z" fill="#38295C"/>
<path d="M524.721 442.967C524.721 442.967 494.964 447.34 478.834 450.083C463.555 452.682 450.361 453.81 446.622 453.121C442.881 452.433 430.092 447.962 425.99 446.356C421.888 444.751 413.684 443.833 409.462 445.095C405.239 446.356 401.78 447.732 400.091 447.732C398.403 447.732 398.724 450.332 400.976 450.867C403.229 451.401 405.239 451.326 405.239 451.326C405.239 451.326 397.598 455.3 396.23 455.682C394.864 456.064 396.484 458.434 398.333 458.281C398.333 458.281 396.714 459.199 397.276 460.115C397.84 461.033 401.86 461.033 401.86 461.033C401.86 461.033 396.955 463.327 401.056 464.244C405.159 465.16 410.065 460.804 412.076 460.422C414.087 460.039 418.751 460.269 421.004 461.874C423.256 463.479 432.908 470.895 446.098 466.461C446.098 466.461 535.631 469.909 544.558 469.909C553.486 469.909 558.878 462.41 556.015 447.962C553.153 433.514 547.603 422.737 547.603 422.737L516.717 424.8L524.721 442.967Z" fill="#FFA498"/>
<path d="M412.289 449.028C413.077 448.852 413.706 448.749 414.099 448.725C414.099 448.725 413.335 448.851 412.289 449.028Z" fill="#C57E75"/>
<path d="M405.239 451.325C405.239 451.325 403.229 451.402 400.977 450.867C400.343 450.717 399.869 450.4 399.542 450.026C402.047 451.079 405.13 450.408 406.818 450.026C407.884 449.784 410.5 449.331 412.289 449.029C410.497 449.428 407.873 450.21 405.239 451.325Z" fill="#C57E75"/>
<path d="M405.634 454.765C405.827 454.681 405.99 454.616 406.096 454.585C406.096 454.585 405.922 454.652 405.634 454.765Z" fill="#C57E75"/>
<path d="M396.246 457.385C396.275 457.409 397.158 458.15 399.017 457.38C400.566 456.741 404.324 455.275 405.633 454.765C403.986 455.476 399.522 457.87 398.333 458.281C397.511 458.349 396.736 457.918 396.246 457.385Z" fill="#C57E75"/>
<path d="M400.868 460.192C402.235 459.809 405.091 458.166 406.84 457.38C408.589 456.595 410.821 456.504 410.821 456.504C410.821 456.504 410.158 456.561 408.408 457.38C406.66 458.2 401.861 461.033 401.861 461.033C401.861 461.033 399.282 461.032 397.966 460.559C397.98 460.559 399.506 460.573 400.868 460.192Z" fill="#C57E75"/>
<path d="M426.325 462.065C428.857 463.556 436.338 465.505 440.802 464.703C445.266 463.9 446.231 460.345 446.231 460.345L447.479 464.168C447.479 464.168 509.571 465.85 522.199 465.31C534.682 464.777 554.152 464.506 556.694 457.381C555.997 465.652 551.282 469.909 544.559 469.909C535.631 469.909 446.098 466.461 446.098 466.461C432.908 470.895 423.257 463.479 421.004 461.874C419.132 460.539 415.597 460.157 413.3 460.287H413.301C416.726 459.146 423.791 460.575 426.325 462.065Z" fill="#C57E75"/>
<path d="M524.721 442.966C524.721 442.966 536.354 441.464 538.686 441.235L536.917 434.355L522.198 437.184L524.721 442.966Z" fill="#C57E75"/>
<path d="M555.811 423.709C556.249 424.786 555.971 425.996 555.102 426.803C549.696 431.82 542.597 438.655 535.298 439.706C527.335 440.852 514.063 441.312 513.339 439.706C512.615 438.101 509.962 417.691 505.136 407.372C500.31 397.052 497.173 391.778 495.966 385.815C494.76 379.853 505.618 365.864 510.444 364.717C515.27 363.571 526.37 362.882 530.954 366.781C535.539 370.68 538.917 385.586 544.225 396.823C548.509 405.89 553.892 418.989 555.811 423.709Z" fill="#DC466F"/>
<path d="M525.945 364.517C524.467 364.355 522.99 364.239 521.51 364.207C520.033 364.151 518.556 364.155 517.086 364.238C515.617 364.322 514.154 364.463 512.714 364.709C511.99 364.818 511.28 364.977 510.568 365.129C509.906 365.359 509.223 365.525 508.613 365.888C507.964 366.165 507.4 366.6 506.804 366.978C506.263 367.432 505.684 367.845 505.188 368.354C504.128 369.301 503.235 370.413 502.329 371.511C501.445 372.628 500.643 373.807 499.881 375.011C499.096 376.205 498.399 377.447 497.72 378.705C498.717 376.037 500.095 373.5 501.748 371.121C502.589 369.941 503.501 368.795 504.567 367.768C505.068 367.227 505.683 366.786 506.249 366.302C506.881 365.889 507.475 365.424 508.184 365.111C508.848 364.729 509.615 364.536 510.352 364.297C511.091 364.149 511.826 363.982 512.573 363.89C514.064 363.687 515.565 363.553 517.065 363.566C520.059 363.559 523.052 363.836 525.945 364.517Z" fill="#D12050"/>
<path d="M549.787 427.934C549.747 424.269 541.606 390.678 534.414 371.956C537.472 378.353 540.329 388.574 544.225 396.822C548.509 405.889 553.892 418.988 555.812 423.708C556.249 424.786 555.971 425.997 555.102 426.803C553.032 428.724 550.711 430.912 548.228 432.939C548.415 432.767 549.824 431.355 549.787 427.934Z" fill="#D12050"/>
<path d="M161.658 390.091C161.511 391.221 161.759 392.36 162.337 393.359C164.443 396.998 165.51 401.18 165.372 405.332C165.281 408.068 164.689 410.867 165.474 413.501C166.826 418.046 171.872 420.856 173.497 425.319C174.936 429.276 173.598 434.252 176.589 437.325C177.331 438.086 178.483 438.669 179.497 438.284C180.005 438.089 180.387 437.686 180.749 437.295C184.18 433.592 187.853 429.091 186.795 424.261C185.801 419.723 180.88 416.656 179.947 412.107C179.186 408.389 181.185 404.101 178.944 400.97C178.326 400.105 177.44 399.444 176.765 398.62C174.099 395.368 175.087 390.183 172.016 387.272C171.015 386.323 169.762 385.785 168.396 385.507C165.177 384.853 162.061 386.985 161.658 390.09V390.091Z" fill="#D35E5A"/>
<path d="M181.168 447.749C181.374 445.328 181.462 442.906 181.557 440.479C181.441 438.059 181.305 435.638 181.087 433.219C180.869 430.8 180.583 428.381 180.132 425.976C179.675 423.587 179.071 421.146 178.014 418.899C176.166 414.46 174.673 409.817 173.164 405.217L170.975 398.281C170.076 396.015 169.198 393.745 168.35 391.459C168.722 393.865 169.301 396.226 169.809 398.605L172.002 405.556C173.52 410.18 175 414.794 176.893 419.344C177.916 421.52 178.482 423.821 178.937 426.178C179.378 428.532 179.66 430.921 179.876 433.317C180.089 435.713 180.237 438.119 180.334 440.527L181.168 447.749Z" fill="#FFA8A5"/>
<path d="M167.723 398.687C168.143 399.291 168.684 399.744 169.265 400.144C169.563 400.334 169.913 400.459 170.239 400.614C170.569 400.764 170.857 400.967 171.125 401.196L171.24 401.297L171.344 401.146C171.587 400.792 171.882 400.465 172.114 400.107C172.339 399.746 172.575 399.39 172.774 399.017C173.163 398.265 173.451 397.466 173.598 396.601L173.526 396.567C172.89 397.202 172.395 397.902 172 398.651C171.807 399.028 171.652 399.422 171.484 399.81C171.324 400.203 171.228 400.625 171.08 401.022L171.299 400.972C170.989 400.796 170.7 400.595 170.452 400.339C170.2 400.091 169.973 399.81 169.694 399.596C169.121 399.186 168.506 398.83 167.772 398.626L167.723 398.687Z" fill="#FFA8A5"/>
<path d="M168.341 406.962C168.779 407.305 169.23 407.675 169.703 407.985C170.174 408.302 170.654 408.609 171.172 408.854C171.696 409.094 172.252 409.283 172.756 409.554C173.263 409.82 173.725 410.156 174.176 410.504L174.336 410.627L174.497 410.427C175.194 409.558 175.792 408.634 176.356 407.693C176.887 406.732 177.359 405.741 177.698 404.679L177.628 404.641C176.846 405.467 176.197 406.362 175.605 407.289C175.047 408.234 174.522 409.197 174.099 410.214L174.419 410.137C173.89 409.903 173.37 409.656 172.893 409.344C172.414 409.035 171.985 408.648 171.523 408.312C171.056 407.983 170.545 407.718 170.025 407.471C169.498 407.232 168.975 406.998 168.358 406.887L168.341 406.962Z" fill="#FFA8A5"/>
<path d="M171.436 417.884C171.915 418.344 172.45 418.683 173.002 418.988C173.546 419.307 174.145 419.519 174.781 419.661C175.417 419.808 175.992 420.074 176.504 420.446C177.016 420.815 177.515 421.221 178.026 421.54L178.413 421.781L178.7 421.372C179.123 420.768 179.508 420.146 179.806 419.477C180.106 418.811 180.372 418.125 180.52 417.379L180.432 417.333C179.848 417.852 179.381 418.431 178.949 419.029C178.515 419.627 178.167 420.269 177.858 420.932L178.532 420.763C177.948 420.457 177.327 420.281 176.713 420.076C176.098 419.876 175.538 419.586 175.033 419.187C174.531 418.781 173.98 418.461 173.376 418.251C172.776 418.03 172.156 417.851 171.478 417.797L171.436 417.884Z" fill="#FFA8A5"/>
<path d="M185.219 448.222C187.21 447.911 194.672 445.642 194.152 443.79C191.914 435.841 189.677 426.823 197.424 422.934C201.152 421.064 205.831 420.113 207.954 416.651C210.141 413.086 208.531 408.554 206.568 404.872C204.606 401.19 202.244 397.25 203.085 393.201C203.966 388.962 208.185 385.833 208.859 381.559C209.78 375.724 203.818 371.022 198.091 368.744C196.143 367.969 194.001 367.306 191.948 367.778C190.482 368.113 189.21 369.007 188.205 370.076C184.182 374.352 184.346 380.803 185.264 386.471C186.182 392.141 187.588 398.127 185.341 403.451C183.745 407.232 180.329 410.788 181.243 414.768C181.61 416.363 182.656 417.754 183.055 419.341C184.13 423.619 180.391 427.474 178.676 431.56C176.465 436.833 177.983 443.276 182.176 447.277C182.973 448.037 184.103 448.396 185.219 448.222Z" fill="#FF7571"/>
<path d="M184.515 448.31C184.976 445.163 185.437 442.028 186.027 438.916C186.167 438.137 186.339 437.362 186.471 436.584C186.595 435.805 186.669 435.019 186.805 434.242C187.052 432.684 187.327 431.132 187.64 429.589C188.272 426.505 189.028 423.435 190.137 420.516C190.693 419.061 191.354 417.639 192.224 416.413C192.657 415.802 193.168 415.259 193.734 414.894C194.48 414.428 195.191 413.828 195.747 413.114C196.895 411.669 197.24 409.833 197.2 408.178C197.161 406.501 196.827 404.899 196.454 403.335C195.687 400.213 194.722 397.199 194.185 394.128C193.64 391.073 193.533 387.943 194.383 385.013C194.643 384.297 194.849 383.569 195.097 382.841C195.349 382.116 195.678 381.411 196.048 380.721C196.791 379.341 197.761 378.056 198.835 376.834C197.519 377.816 196.297 378.951 195.279 380.263C194.767 380.915 194.288 381.602 193.881 382.331C193.459 383.053 193.103 383.82 192.917 384.631C191.988 387.838 192.121 391.197 192.686 394.366C193.245 397.552 194.227 400.614 194.974 403.658C195.338 405.18 195.648 406.708 195.681 408.202C195.714 409.691 195.411 411.145 194.526 412.257C194.088 412.814 193.539 413.287 192.893 413.691C192.078 414.221 191.474 414.896 190.974 415.593C189.98 416.997 189.295 418.502 188.71 420.019C187.555 423.063 186.792 426.184 186.149 429.315C185.831 430.881 185.553 432.452 185.302 434.027C185.189 434.816 185.034 435.599 184.934 436.39C184.849 437.182 184.812 437.98 184.758 438.774C184.577 441.955 184.453 445.132 184.515 448.31Z" fill="#FFA8A5"/>
<path d="M197.735 386.264C197.162 386.454 196.681 386.772 196.236 387.11C195.795 387.454 195.374 387.819 195.063 388.281C194.749 388.739 194.469 389.223 194.066 389.6C193.679 389.99 193.212 390.307 192.763 390.649L193.353 390.685C193.154 390.277 192.909 389.896 192.684 389.504C192.451 389.118 192.218 388.732 191.944 388.373C191.685 388.004 191.389 387.658 191.109 387.305C190.826 386.951 190.507 386.624 190.25 386.248L190.15 386.265C190.129 386.76 190.286 387.22 190.446 387.654C190.621 388.085 190.816 388.504 191.051 388.899C191.271 389.303 191.55 389.67 191.832 390.034C192.123 390.393 192.4 390.757 192.734 391.089L193.103 391.458L193.324 391.125C193.626 390.67 193.918 390.196 194.295 389.799C194.655 389.389 195.146 389.093 195.61 388.778C196.077 388.465 196.445 388.067 196.806 387.661C197.164 387.249 197.498 386.826 197.798 386.339L197.735 386.264Z" fill="#FFA8A5"/>
<path d="M190.499 398.3C190.736 398.841 191.045 399.335 191.39 399.798C191.743 400.256 192.11 400.701 192.531 401.1C192.961 401.489 193.455 401.821 193.917 402.18C194.37 402.547 194.769 402.959 195.131 403.41L195.247 403.553L195.409 403.43C196.012 402.974 196.49 402.559 196.965 402.073C197.415 401.585 197.894 401.121 198.313 400.614C198.736 400.109 199.129 399.585 199.503 399.046C199.881 398.509 200.22 397.948 200.614 397.424L200.557 397.344C199.896 397.64 199.381 398.1 198.87 398.538C198.369 398.988 197.902 399.466 197.471 399.968C197.034 400.466 196.664 401.013 196.259 401.531C195.864 402.037 195.53 402.668 195.155 403.111L195.433 403.132C194.975 402.775 194.562 402.373 194.207 401.921C193.861 401.461 193.55 400.971 193.186 400.531C192.813 400.098 192.388 399.71 191.964 399.321C191.535 398.938 191.077 398.577 190.578 398.241L190.499 398.3Z" fill="#FFA8A5"/>
<path d="M203.808 407.591C203.179 408.292 202.528 408.939 201.862 409.555C201.193 410.173 200.476 410.714 199.778 411.309C199.066 411.884 198.259 412.398 197.345 412.652C196.439 412.924 195.477 412.958 194.549 412.948L194.965 413.226C194.801 412.483 194.559 411.783 194.303 411.075C194.05 410.368 193.729 409.681 193.341 409.026C192.956 408.369 192.5 407.741 191.962 407.173C191.414 406.622 190.781 406.104 190.024 405.847L189.974 405.929C190.546 406.423 190.988 406.991 191.372 407.599C191.762 408.201 192.091 408.838 192.417 409.479L193.348 411.433C193.654 412.088 193.924 412.769 194.192 413.431L194.321 413.752L194.607 413.71C195.594 413.562 196.531 413.244 197.447 412.939C198.352 412.603 199.282 412.308 200.172 411.875C201.072 411.456 201.829 410.808 202.464 410.086C203.098 409.363 203.616 408.54 203.898 407.634L203.808 407.591Z" fill="#FFA8A5"/>
<path d="M185.81 414.702C185.505 415.398 185.401 416.157 185.421 416.909C185.455 417.659 185.579 418.416 185.856 419.123C186.147 419.826 186.574 420.471 187.05 421.056L188.444 422.815L188.543 422.941L188.703 422.833C189.457 422.323 190.314 421.937 191.131 421.532C191.947 421.116 192.793 420.759 193.639 420.418C194.484 420.071 195.329 419.721 196.196 419.411C197.057 419.074 197.943 418.807 198.843 418.486L198.828 418.39C196.909 418.351 194.97 418.738 193.205 419.476C192.32 419.844 191.487 420.315 190.682 420.812C189.879 421.321 189.163 421.934 188.461 422.567L188.721 422.583C188.205 422.067 187.735 421.495 187.435 420.839C187.101 420.199 186.936 419.502 186.707 418.849C186.262 417.532 185.979 416.176 185.909 414.724L185.81 414.702Z" fill="#FFA8A5"/>
<path d="M171.688 468.732H192.992C194.969 468.732 196.65 467.108 196.948 464.909L200.32 440.003C200.69 437.279 198.814 434.824 196.365 434.824H168.316C165.866 434.824 163.99 437.279 164.36 440.003L167.733 464.909C168.03 467.108 169.711 468.732 171.688 468.732Z" fill="#524787"/>
<path d="M168.316 434.825H182.655C180.205 434.825 178.33 437.28 178.699 440.004L182.071 464.911C182.369 467.11 184.051 468.734 186.027 468.734H171.688C169.711 468.734 168.03 467.11 167.733 464.911L164.36 440.004C163.99 437.28 165.866 434.825 168.316 434.825Z" fill="#38295C"/>
<path d="M362.524 461.892H273.422C272.525 461.892 271.798 462.584 271.798 463.437V467.189C271.798 468.041 272.525 468.732 273.422 468.732H362.524V461.892Z" fill="#3A4278"/>
<path d="M385.453 466.611V468.135C385.453 468.465 385.172 468.732 384.825 468.732H362.38C361.682 468.732 361.116 468.195 361.116 467.531V463.087C361.116 462.37 361.773 461.812 362.523 461.892L384.895 466.018C385.213 466.052 385.453 466.307 385.453 466.611Z" fill="#524787"/>
<path d="M206.81 317.966H373.339C376.709 317.966 379.715 319.975 380.857 322.988L417.276 419.11C418.799 424.067 414.983 427.782 408.85 428.41C407.91 428.505 403.437 426.595 396.413 423.454H247.535C244.166 423.454 241.159 421.446 240.017 418.433L207.118 331.603C201.556 328.843 198.385 327.266 198.385 327.266C198.385 327.266 196.325 317.966 206.81 317.966Z" fill="#BDE9C8"/>
<path d="M368.125 322.921H201.596C199.232 322.921 197.582 325.151 198.383 327.265L234.803 423.388C235.945 426.401 238.953 428.409 242.322 428.409H408.849C411.216 428.409 412.864 426.179 412.063 424.064L375.644 327.943C374.502 324.93 371.494 322.921 368.125 322.921Z" fill="#838BC0"/>
<path d="M330.53 428.41L323.138 402.353L295.121 428.41H330.53Z" fill="#261B41"/>
<path d="M368.248 412.415L366.107 406.762H368.799L370.94 412.415H368.248Z" fill="#261B41"/>
<path d="M362.579 412.415L360.438 406.762H363.13L365.271 412.415H362.579Z" fill="#261B41"/>
<path d="M356.911 412.415L354.771 406.762H357.462L359.604 412.415H356.911Z" fill="#261B41"/>
<path d="M351.243 412.415L349.103 406.762H351.794L353.935 412.415H351.243Z" fill="#261B41"/>
<path d="M270.73 412.415L268.589 406.762H271.28L273.422 412.415H270.73Z" fill="#261B41"/>
<path d="M265.062 412.415L262.921 406.762H265.613L267.753 412.415H265.062Z" fill="#261B41"/>
<path d="M259.394 412.415L257.252 406.762H259.944L262.085 412.415H259.394Z" fill="#261B41"/>
<path d="M253.725 412.415L251.584 406.762H254.276L256.416 412.415H253.725Z" fill="#261B41"/>
<path d="M274.296 459.443C275.939 454.953 295.867 393.84 295.867 393.84H321.447L323.137 402.352C323.137 402.352 305.986 454.953 304.343 459.443C304.217 459.786 304.098 460.129 303.986 460.473H303.988C302.485 464.864 306.451 464.845 310.916 464.845H356.03V468.732H310.916H280.871C271.831 468.732 272.652 463.933 274.296 459.443Z" fill="#BDE9C8"/>
<path d="M321.448 393.84C321.448 393.84 301.52 454.953 299.877 459.443C298.233 463.933 297.412 468.732 306.451 468.732H276.404C267.365 468.732 268.187 463.933 269.831 459.443C271.474 454.953 291.401 393.84 291.401 393.84H321.448Z" fill="#838BC0"/>
<path d="M315.184 393.84C313.202 393.753 311.22 393.711 309.238 393.649C307.257 393.585 305.275 393.57 303.293 393.529C301.311 393.499 299.329 393.444 297.347 393.443L291.402 393.408L291.07 393.407L290.967 393.712C290.139 396.174 289.322 398.639 288.543 401.114L286.173 408.531C284.647 413.494 283.119 418.453 281.726 423.454C283.556 418.582 285.253 413.672 286.954 408.762L289.422 401.373C290.256 398.913 291.052 396.443 291.836 393.969L291.402 394.272L297.347 394.237C299.329 394.237 301.311 394.183 303.293 394.152C305.275 394.111 307.257 394.097 309.238 394.032C311.22 393.97 313.202 393.927 315.184 393.84Z" fill="#BDE9C8"/>
<path d="M140.916 483.736H581.982C586.342 483.736 589.875 480.377 589.875 476.234C589.875 472.091 586.342 468.733 581.982 468.733H140.916C136.557 468.733 133.023 472.091 133.023 476.234C133.023 480.377 136.557 483.736 140.916 483.736Z" fill="#A14F58"/>
<path d="M140.916 483.736H581.982C586.342 483.736 589.875 480.377 589.875 476.234H133.023C133.023 480.377 136.557 483.736 140.916 483.736Z" fill="#713349"/>
<path d="M232.88 241.731C232.88 276.578 203.157 304.826 166.491 304.826C129.825 304.826 100.101 276.578 100.101 241.731C100.101 206.884 129.825 178.634 166.491 178.634C203.157 178.634 232.88 206.884 232.88 241.731Z" fill="#BDE9C8"/>
<path d="M261.079 229.395C261.079 249.659 278.364 266.087 299.686 266.087C321.008 266.087 338.293 249.659 338.293 229.395C338.293 209.131 321.008 192.703 299.686 192.703C278.364 192.703 261.079 209.131 261.079 229.395Z" fill="#E6B851"/>
<path d="M280.64 243.759H318.733C320.481 243.759 321.899 242.411 321.899 240.75V218.04C321.899 216.378 320.481 215.031 318.733 215.031H280.64C278.892 215.031 277.475 216.378 277.475 218.04V240.75C277.475 242.411 278.892 243.759 280.64 243.759Z" fill="#BDE9C8"/>
<path d="M280.64 243.759H318.733C320.481 243.759 321.899 242.411 321.899 240.75L299.687 227.475L277.475 240.75C277.475 242.411 278.892 243.759 280.64 243.759Z" fill="#C8DDF5"/>
<path d="M280.64 215.031H318.733C320.481 215.031 321.899 216.378 321.899 218.04L299.687 231.315L277.475 218.04C277.475 216.378 278.892 215.031 280.64 215.031Z" fill="#4371D7"/>
<path d="M534.791 282.194C534.791 302.459 552.075 318.886 573.398 318.886C594.72 318.886 612.005 302.459 612.005 282.194C612.005 261.93 594.72 245.502 573.398 245.502C552.075 245.502 534.791 261.93 534.791 282.194Z" fill="#E6B851"/>
<path d="M566.797 283.644C563.506 283.644 560.841 281.11 560.841 277.983C560.841 274.857 563.506 272.322 566.797 272.322C570.087 272.322 572.754 274.857 572.754 277.983C572.754 281.11 570.087 283.644 566.797 283.644ZM584.226 275.02H580.344C579.993 273.564 579.389 272.205 578.579 270.977L581.327 268.366C581.701 268.01 581.701 267.433 581.327 267.076L578.273 264.175C577.899 263.819 577.291 263.819 576.916 264.175L574.169 266.786C572.877 266.015 571.446 265.441 569.915 265.107V261.419C569.915 260.915 569.486 260.507 568.956 260.507H564.638C564.109 260.507 563.679 260.915 563.679 261.419V265.107C562.148 265.441 560.717 266.015 559.424 266.786L556.678 264.175C556.304 263.819 555.695 263.819 555.321 264.175L552.268 267.076C551.894 267.433 551.894 268.01 552.268 268.366L555.015 270.977C554.205 272.205 553.601 273.564 553.249 275.02H549.368C548.838 275.02 548.409 275.428 548.409 275.932V280.035C548.409 280.538 548.838 280.947 549.368 280.947H553.249C553.601 282.402 554.205 283.761 555.015 284.99L552.268 287.601C551.894 287.957 551.894 288.534 552.268 288.89L555.321 291.791C555.695 292.148 556.304 292.148 556.678 291.791L559.424 289.18C560.717 289.951 562.148 290.525 563.679 290.859V294.548C563.679 295.051 564.109 295.459 564.638 295.459H568.956C569.486 295.459 569.915 295.051 569.915 294.548V290.859C571.446 290.525 572.877 289.951 574.169 289.18L576.916 291.791C577.291 292.148 577.899 292.148 578.273 291.791L581.327 288.89C581.701 288.534 581.701 287.957 581.327 287.601L578.579 284.99C579.389 283.761 579.993 282.402 580.344 280.947H584.226C584.757 280.947 585.185 280.538 585.185 280.035V275.932C585.185 275.428 584.757 275.02 584.226 275.02Z" fill="#BDE9C8"/>
<path d="M566.797 282.795C564.001 282.795 561.734 280.64 561.734 277.983C561.734 275.325 564.001 273.171 566.797 273.171C569.593 273.171 571.86 275.325 571.86 277.983C571.86 280.64 569.593 282.795 566.797 282.795ZM566.797 270.102C562.218 270.102 558.505 273.631 558.505 277.983C558.505 282.336 562.218 285.863 566.797 285.863C571.376 285.863 575.09 282.336 575.09 277.983C575.09 273.631 571.376 270.102 566.797 270.102Z" fill="#4371D7"/>
<path d="M591.901 295.585C590.22 295.585 588.857 294.291 588.857 292.694C588.857 291.096 590.22 289.802 591.901 289.802C593.581 289.802 594.944 291.096 594.944 292.694C594.944 294.291 593.581 295.585 591.901 295.585ZM600.805 291.18H598.821C598.643 290.436 598.334 289.741 597.92 289.114L599.323 287.78C599.514 287.598 599.514 287.303 599.323 287.122L597.764 285.639C597.573 285.458 597.262 285.458 597.071 285.639L595.666 286.973C595.007 286.58 594.276 286.287 593.494 286.116V284.232C593.494 283.974 593.274 283.766 593.003 283.766H590.798C590.527 283.766 590.307 283.974 590.307 284.232V286.116C589.526 286.287 588.795 286.58 588.135 286.973L586.731 285.639C586.539 285.458 586.229 285.458 586.037 285.639L584.479 287.122C584.287 287.303 584.287 287.598 584.479 287.78L585.881 289.114C585.468 289.741 585.159 290.436 584.98 291.18H582.997C582.726 291.18 582.507 291.389 582.507 291.645V293.741C582.507 293.999 582.726 294.208 582.997 294.208H584.98C585.159 294.95 585.468 295.645 585.881 296.273L584.479 297.607C584.287 297.789 584.287 298.084 584.479 298.265L586.037 299.748C586.229 299.93 586.539 299.93 586.731 299.748L588.135 298.414C588.795 298.807 589.526 299.101 590.307 299.271V301.156C590.307 301.413 590.527 301.622 590.798 301.622H593.003C593.274 301.622 593.494 301.413 593.494 301.156V299.271C594.276 299.101 595.007 298.807 595.666 298.414L597.071 299.748C597.262 299.93 597.573 299.93 597.764 299.748L599.323 298.265C599.514 298.084 599.514 297.789 599.323 297.607L597.92 296.273C598.334 295.645 598.643 294.95 598.821 294.208H600.805C601.076 294.208 601.295 293.999 601.295 293.741V291.645C601.295 291.389 601.076 291.18 600.805 291.18Z" fill="#BDE9C8"/>
<path d="M591.902 295.152C590.472 295.152 589.314 294.051 589.314 292.694C589.314 291.335 590.472 290.235 591.902 290.235C593.33 290.235 594.488 291.335 594.488 292.694C594.488 294.051 593.33 295.152 591.902 295.152ZM591.902 288.667C589.562 288.667 587.665 290.469 587.665 292.694C587.665 294.916 589.562 296.719 591.902 296.719C594.24 296.719 596.137 294.916 596.137 292.694C596.137 290.469 594.24 288.667 591.902 288.667Z" fill="#4371D7"/>
<path d="M360.619 178.266C360.619 198.531 377.904 214.958 399.226 214.958C420.548 214.958 437.833 198.531 437.833 178.266C437.833 158.002 420.548 141.574 399.226 141.574C377.904 141.574 360.619 158.002 360.619 178.266Z" fill="#E3E4EB"/>
<path d="M377.014 168.577H421.439V163.922C421.439 162.32 420.072 161.021 418.386 161.021H380.067C378.38 161.021 377.014 162.32 377.014 163.922V168.577Z" fill="#4371D7"/>
<path d="M402.03 176.726H404.413C404.818 176.726 405.146 176.414 405.146 176.029V173.764C405.146 173.379 404.818 173.068 404.413 173.068H402.03C401.626 173.068 401.297 173.379 401.297 173.764V176.029C401.297 176.414 401.626 176.726 402.03 176.726Z" fill="#BDE9C8"/>
<path d="M392.873 176.726H395.256C395.662 176.726 395.989 176.414 395.989 176.029V173.764C395.989 173.379 395.662 173.068 395.256 173.068H392.873C392.469 173.068 392.141 173.379 392.141 173.764V176.029C392.141 176.414 392.469 176.726 392.873 176.726Z" fill="#BDE9C8"/>
<path d="M383.715 176.726H386.099C386.504 176.726 386.832 176.414 386.832 176.029V173.764C386.832 173.379 386.504 173.068 386.099 173.068H383.715C383.311 173.068 382.982 173.379 382.982 173.764V176.029C382.982 176.414 383.311 176.726 383.715 176.726Z" fill="#BDE9C8"/>
<path d="M411.188 184.22H413.571C413.976 184.22 414.304 183.908 414.304 183.524V181.258C414.304 180.874 413.976 180.563 413.571 180.563H411.188C410.783 180.563 410.455 180.874 410.455 181.258V183.524C410.455 183.908 410.783 184.22 411.188 184.22Z" fill="#BDE9C8"/>
<path d="M402.03 184.22H404.413C404.818 184.22 405.146 183.908 405.146 183.524V181.258C405.146 180.874 404.818 180.563 404.413 180.563H402.03C401.626 180.563 401.297 180.874 401.297 181.258V183.524C401.297 183.908 401.626 184.22 402.03 184.22Z" fill="#BDE9C8"/>
<path d="M392.873 184.22H395.256C395.662 184.22 395.989 183.908 395.989 183.524V181.258C395.989 180.874 395.662 180.563 395.256 180.563H392.873C392.469 180.563 392.141 180.874 392.141 181.258V183.524C392.141 183.908 392.469 184.22 392.873 184.22Z" fill="#BDE9C8"/>
<path d="M383.715 184.22H386.099C386.504 184.22 386.832 183.908 386.832 183.524V181.258C386.832 180.874 386.504 180.563 386.099 180.563H383.715C383.311 180.563 382.982 180.874 382.982 181.258V183.524C382.982 183.908 383.311 184.22 383.715 184.22Z" fill="#BDE9C8"/>
<path d="M411.188 191.714H413.571C413.976 191.714 414.304 191.403 414.304 191.018V188.752C414.304 188.368 413.976 188.056 413.571 188.056H411.188C410.783 188.056 410.455 188.368 410.455 188.752V191.018C410.455 191.403 410.783 191.714 411.188 191.714Z" fill="#BDE9C8"/>
<path d="M402.03 191.714H404.413C404.818 191.714 405.146 191.403 405.146 191.018V188.752C405.146 188.368 404.818 188.056 404.413 188.056H402.03C401.626 188.056 401.297 188.368 401.297 188.752V191.018C401.297 191.403 401.626 191.714 402.03 191.714Z" fill="#BDE9C8"/>
<path d="M392.873 191.714H395.256C395.662 191.714 395.989 191.403 395.989 191.018V188.752C395.989 188.368 395.662 188.056 395.256 188.056H392.873C392.469 188.056 392.141 188.368 392.141 188.752V191.018C392.141 191.403 392.469 191.714 392.873 191.714Z" fill="#BDE9C8"/>
<path d="M548.354 197.122C548.354 217.387 531.069 233.814 509.747 233.814C488.425 233.814 471.141 217.387 471.141 197.122C471.141 176.858 488.425 160.43 509.747 160.43C531.069 160.43 548.354 176.858 548.354 197.122Z" fill="#FF7571"/>
<path d="M511.963 218.534V215.102C511.963 214.464 511.419 213.946 510.748 213.946H508.745C508.073 213.946 507.529 214.464 507.529 215.102V218.534C496.797 217.542 488.261 209.429 487.217 199.23H490.828C491.5 199.23 492.044 198.712 492.044 198.074V196.171C492.044 195.532 491.5 195.015 490.828 195.015H487.217C488.261 184.816 496.797 176.703 507.529 175.71V179.143C507.529 179.781 508.073 180.298 508.745 180.298H510.748C511.419 180.298 511.963 179.781 511.963 179.143V175.71C522.696 176.703 531.232 184.816 532.276 195.015H528.665C527.994 195.015 527.449 195.532 527.449 196.171V198.074C527.449 198.712 527.994 199.23 528.665 199.23H532.276C531.232 209.429 522.696 217.542 511.963 218.534ZM509.747 171.991C495.142 171.991 483.303 183.242 483.303 197.123C483.303 211.002 495.142 222.254 509.747 222.254C524.351 222.254 536.19 211.002 536.19 197.123C536.19 183.242 524.351 171.991 509.747 171.991Z" fill="#CC3834"/>
<path d="M491.551 161.485C491.551 159.186 492.171 157.43 493.411 156.216C494.483 155.143 495.891 154.607 497.635 154.607C499.236 154.607 500.599 155.208 501.723 156.409C502.859 157.611 503.428 159.012 503.428 160.614C503.428 162.267 503.059 163.862 502.323 165.399C501.923 166.252 500.986 167.718 499.514 169.797C499.113 170.365 498.519 171.25 497.731 172.451L497.073 173.44C496.646 174.085 496.323 174.596 496.104 174.97C496.001 175.151 495.949 175.261 495.949 175.3L503.137 175.319V178.903H491.493V175.551C491.493 175.474 491.764 175.028 492.306 174.215C492.552 173.84 492.83 173.427 493.14 172.975L494.089 171.599C494.644 170.837 495.516 169.616 496.705 167.937C497.828 166.361 498.668 164.934 499.223 163.655C499.675 162.609 499.901 161.634 499.901 160.73C499.901 159.994 499.695 159.367 499.281 158.851C498.829 158.308 498.248 158.037 497.538 158.037C496.517 158.037 495.794 158.624 495.368 159.8C495.226 160.187 495.155 160.652 495.155 161.195V162.125H491.551V161.485ZM503.614 169.991L510.085 154.607H513.747V169.991H516.091V173.672H513.747V178.903H510.085V173.672H503.614V169.991ZM510.085 169.991V162.415L507.063 169.991H510.085ZM501.626 189.096H504.609L494.476 215.659H491.493L501.626 189.096ZM518.135 190.607V194.289L513.001 214.903H509.417L514.551 194.289H507.13V190.607H518.135Z" fill="#D6C9DB"/>
<path d="M269.338 342.454C270.6 348.474 264.735 353.826 262.899 354.83C261.062 355.833 248.74 360.515 241.337 360.682C233.935 360.849 224.165 345.966 228.163 344.294C232.162 342.621 259.4 340.783 262.391 340.783C265.382 340.783 269.338 342.454 269.338 342.454Z" fill="#FFC6C8"/>
<path d="M249.927 339.279C246.696 357.338 239.022 371.385 236.627 371.636C234.233 371.887 211.229 364.362 204.888 361.602C198.547 358.843 206.835 316.457 210.782 317.204C214.73 317.95 223.382 326.093 230.527 329.997C237.672 333.903 249.927 339.279 249.927 339.279Z" fill="#F9CA45"/>
<path d="M212.036 346.786C214.254 350.4 232.534 359.561 242.602 362.901C240.114 368.234 237.769 371.516 236.627 371.635C234.577 371.85 217.419 366.364 208.549 363.05C209.292 356.339 212.036 346.786 212.036 346.786Z" fill="#C7A237"/>
<path d="M269.365 341.62C269.546 348.784 262.756 349.814 254.627 347.974C246.498 346.134 233.226 328.743 227.318 320.884C221.409 313.024 210.384 299.019 208.105 297.766C205.826 296.511 200.597 295.846 196.124 288.779C191.651 281.713 197.535 266.913 199.649 265.157C201.763 263.401 219.877 269.264 221.982 272.228C224.086 275.19 220.491 291.118 221.129 293.125C221.767 295.132 237.183 311.52 243.915 315.533C250.645 319.546 269.234 336.436 269.365 341.62Z" fill="#FFC6C8"/>
<path d="M208.927 276.982C206.796 275.979 206.282 271.421 207.621 272.225C208.962 273.028 211.306 273.01 214.478 272.968C217.65 272.926 218.951 272.666 218.951 272.666C218.951 272.666 219.275 274.64 219.259 276.259C219.259 276.259 211.058 277.985 208.927 276.982Z" fill="#FF8B8C"/>
<path d="M194.822 278.017C196.114 275.735 197.111 274.004 197.111 274.004L209.572 285.403C212.979 282.595 217.148 280.032 217.148 280.032L218.245 281.891C216.229 285.133 214.472 291.989 214.433 293.661C214.433 293.661 212.519 295.668 211.451 295.835C211.451 295.835 224.782 315.902 233.352 325.768C241.871 335.576 247.706 344.059 251.724 346.786C243.62 342.345 232.567 327.866 227.317 320.883C221.409 313.024 210.385 299.019 208.105 297.765C205.827 296.511 200.598 295.845 196.126 288.779C194.351 285.976 194.218 281.957 194.822 278.017Z" fill="#FF8B8C"/>
<path d="M220.758 279.161C220.606 280.331 208.224 290.533 206.927 291.703C206.83 291.791 205.863 291.925 205.597 291.703C202.303 288.953 187.923 264.136 187.667 263.24C187.426 262.404 196.973 253.868 199.888 251.585C200.285 251.273 201.921 251.462 202.189 251.839C205.13 255.979 220.953 277.651 220.758 279.161Z" fill="#050233"/>
<path d="M219.427 279.162C219.276 280.331 206.893 290.533 205.597 291.703C204.3 292.874 186.613 264.208 186.336 263.241C186.096 262.405 196.725 254.007 199.639 251.723C200.036 251.412 200.59 251.462 200.859 251.839C203.8 255.979 219.622 277.651 219.427 279.162Z" fill="#211E88"/>
<path d="M217.342 277.484C217.201 278.578 205.617 288.122 204.405 289.217C203.192 290.312 186.645 263.495 186.386 262.59C186.161 261.808 196.104 253.951 198.831 251.815C199.202 251.524 199.721 251.57 199.971 251.924C202.724 255.796 217.525 276.071 217.342 277.484Z" fill="#00B1FA"/>
<path d="M209.916 263.497C207.998 262.398 205.644 258.678 205.431 257.423C205.22 256.17 205.351 255.04 206.381 254.789C207.413 254.539 210.586 258.469 212.168 259.639C213.75 260.81 215.676 263.234 214.891 264.865C214.107 266.495 210.592 265.868 210.215 265.618C209.839 265.367 209.916 263.497 209.916 263.497Z" fill="#FFC6C8"/>
<path d="M205.788 255.12C205.18 256.546 209.141 262.268 212.615 263.915L211.324 265.318C211.324 265.318 210.738 265.195 209.985 265.025C209.881 264.39 209.916 263.497 209.916 263.497C207.998 262.399 205.644 258.678 205.431 257.424C205.271 256.473 205.312 255.598 205.788 255.12Z" fill="#FF8B8C"/>
<path d="M214.375 269.278C211.075 267.603 208.488 267.791 206.693 267.101C204.898 266.411 204.572 263.777 205.793 263.338C207.015 262.899 214.45 264.029 216.367 264.843C218.284 265.658 219.2 269.414 219.2 269.414L214.375 269.278Z" fill="#FFC6C8"/>
<path d="M212.929 267.324C214.796 267.659 215.437 267.324 215.437 267.324C215.383 268.017 216.072 268.362 216.847 269.348L214.373 269.278C211.075 267.603 208.487 267.791 206.692 267.101C205.873 266.787 205.377 266.067 205.177 265.336C205.976 266.781 211.073 266.992 212.929 267.324Z" fill="#FF8B8C"/>
<path d="M221.981 272.227C220.221 274.542 211.588 273.539 209.847 273.288C208.107 273.036 207.015 271.992 207.193 270.939C207.551 268.814 218.959 269.191 219.901 269.525C220.843 269.86 221.981 272.227 221.981 272.227Z" fill="#FFC6C8"/>
<path d="M207.255 271.451C208.434 272.565 211.27 273.2 214.364 273.437C217.044 273.643 218.584 273.544 218.94 273.515C215.686 274.007 211.07 273.464 209.848 273.288C208.394 273.079 207.442 272.311 207.255 271.451Z" fill="#FF8B8C"/>
<path d="M181.58 304.663C199.904 313.526 202.91 313.183 210.782 317.203C218.651 321.223 216.309 363.526 215.81 370.047C215.31 376.569 213.414 402.488 214.459 409.511C215.505 416.535 219.578 442.621 221.383 446.634C223.186 450.648 226.626 457.421 221.305 461.433C215.983 465.446 204.723 468.206 180.275 466.701C155.827 465.196 129.473 450.899 128.307 448.892C127.141 446.886 139.994 410.013 140.532 402.989C141.07 395.966 142.529 390.698 143.307 387.438C144.084 384.176 136.306 368.876 135.064 359.093C133.821 349.312 122.638 322.325 124.759 317.382C126.88 312.439 146.357 306.932 159.621 300.645C172.884 294.359 181.58 304.663 181.58 304.663Z" fill="#F9CA45"/>
<path d="M199.747 315.632C196.73 325.055 190.589 333.551 182.415 339.607C172.491 337.294 162.401 333.138 154.275 327.25C163.356 333.607 173.261 338.955 183.865 342.606C192.82 335.635 198.135 326.527 199.747 315.632Z" fill="#C7A237"/>
<path d="M196.007 311.147C192.487 309.72 187.965 307.751 181.58 304.663C181.58 304.663 172.885 294.359 159.621 300.646C155.019 302.826 149.67 304.914 144.556 306.916C152.457 319.691 165.259 329.685 180.036 334.437C187.828 328.605 193.432 320.249 196.007 311.147Z" fill="#FFC6C8"/>
<path opacity="0.2" d="M128.308 448.892C127.142 446.885 139.995 410.013 140.533 402.99C141.07 395.966 142.529 390.698 143.307 387.438C144.085 384.177 136.307 368.876 135.064 359.094C134.849 357.394 134.328 355.167 133.634 352.634L141.897 346.786C146.742 359.631 149.763 382.205 154.356 387.724C158.948 393.242 170.388 395.499 170.388 395.499C170.388 395.499 159.088 398.008 154.162 397.004C154.162 397.004 148.901 416.821 148.841 426.603C148.782 436.385 149.738 451.184 149.86 453.191C149.905 453.94 149.731 456.552 149.495 459.529C137.655 455.075 128.966 450.025 128.308 448.892Z" fill="black"/>
<path d="M161.702 282.826C161.513 293.293 160.786 300.483 158.346 302.49C158.346 302.49 162.543 319.859 179.298 318.375C184.968 317.874 184.427 308.844 181.581 304.664L183.267 291.826L161.702 282.826Z" fill="#FFC6C8"/>
<path d="M159.621 300.646C161.055 297.435 161.55 291.179 161.701 282.825L183.267 291.825L182.185 300.058C178.363 301.688 159.621 300.646 159.621 300.646Z" fill="#FF8B8C"/>
<path d="M102.315 367.48C98.6007 372.329 93.6323 384.368 95.4969 389.888C97.3616 395.406 116.594 419.987 125.39 429.184C134.188 438.381 136.183 439.886 137.713 442.897C139.242 445.907 146.736 458.323 148.704 460.204C150.671 462.085 154.215 462.337 154.215 462.337C154.215 462.337 156.864 465.095 161.938 464.593C161.938 464.593 166.358 467.478 169.863 468.23C169.863 468.23 171.02 470.36 172.193 470.549C173.366 470.739 174.858 468.482 172.697 463.966C170.536 459.451 166.985 457.57 166.414 454.686C165.843 451.801 163.096 445.916 163.096 445.916C163.096 445.916 169.264 451.926 173.062 452.303C176.861 452.679 177.371 450.547 175.286 448.791C173.202 447.036 170.5 444.402 167.988 441.015C165.476 437.629 162.35 435.372 157.516 434.745C152.681 434.118 149.289 433.616 148.036 432.738C146.784 431.86 140.462 423.332 136.142 414.134C131.822 404.937 127.952 393.184 116.973 382.864L121.811 374.837L102.315 367.48Z" fill="#FFC6C8"/>
<path d="M169.701 467.656C168.765 465.113 167.045 462.943 165.152 461.013L164.401 460.311C164.18 460.092 163.789 459.816 163.703 459.687C163.324 459.229 162.997 458.625 162.633 458.08C161.936 456.953 161.259 455.803 160.488 454.696C160.856 455.998 161.349 457.242 161.901 458.468C162.173 459.092 162.468 459.671 162.882 460.288C163.202 460.692 163.409 460.776 163.656 461.039L164.362 461.732C165.312 462.657 166.212 463.63 167.12 464.601C168.021 465.579 168.863 466.597 169.701 467.656Z" fill="#FF8B8C"/>
<path d="M161.732 463.725C161.005 462.375 160.142 461.204 159.372 459.974C158.566 458.759 157.851 457.541 157.117 456.201C157.038 457.779 157.65 459.266 158.459 460.542C159.304 461.81 160.38 462.926 161.732 463.725Z" fill="#FF8B8C"/>
<path d="M157.87 464.261C155.476 463.604 154.215 462.337 154.215 462.337C154.215 462.337 150.67 462.085 148.703 460.204C147.899 459.435 146.169 456.9 144.304 453.973C144.344 454.02 146.555 456.303 148.145 458.187C150.384 460.841 153.597 459.963 153.597 459.963L153.168 457.517C153.168 457.517 155.305 463.069 157.87 464.261Z" fill="#FF8B8C"/>
<path d="M95.416 383.755C95.5204 386.043 95.5491 387.863 99.1213 393.869C103.142 400.627 127.302 429.11 132.573 434.378C137.843 439.645 137.687 439.98 140.807 448.302C139.398 445.95 138.223 443.899 137.713 442.897C136.185 439.886 134.188 438.381 125.391 429.183C116.594 419.987 97.362 395.406 95.4973 389.887C94.9559 388.283 95.003 386.123 95.416 383.755Z" fill="#FF8B8C"/>
<path d="M114.353 377.172L112.391 380.282C112.391 380.282 115.046 380.964 116.973 382.863L120.803 376.687L114.353 377.172Z" fill="#FF8B8C"/>
<path d="M137.508 360.169C142.553 350.741 144.573 335.431 140.019 327.373C135.465 319.315 126.869 316.414 124.76 317.382C122.651 318.349 116.94 330.919 111.578 336.721C106.216 342.523 91.5736 358.799 91.1301 360.169C90.6857 361.539 101.713 372.596 122.454 380.716C124.923 381.684 137.508 360.169 137.508 360.169Z" fill="#F9CA45"/>
<g opacity="0.2">
<path d="M122.124 367.48L118.815 373.928C118.815 373.928 135.114 358.399 141.881 346.81C141.061 351.645 139.535 356.382 137.507 360.17C137.507 360.17 124.923 381.685 122.453 380.717C118.904 379.328 115.663 377.851 112.691 376.353L122.124 367.48Z" fill="black"/>
</g>
<path d="M184.513 283.763C183.392 279.448 183.416 275.035 183.146 270.622C182.943 267.323 182.767 264.303 179.616 262.33C177.313 260.888 174.426 260.604 171.717 260.931C164.435 261.809 162.869 268.552 163.426 274.937C163.853 279.824 165.862 284.517 167.857 289.013C165.179 288.9 161.523 287.566 159.924 285.448C160.642 288.235 162.003 290.796 164.129 292.768C156.369 292.64 149.166 287.815 145.055 281.333C140.946 274.853 139.643 266.94 140.081 259.312C140.6 250.26 143.57 241.186 149.461 234.217C161.31 220.199 184.139 218.565 198.04 230.612C202.819 234.752 206.286 240.304 208.02 246.324C210.299 254.238 210.252 262.729 208.476 270.735C207.741 274.05 207.404 276.919 207.058 280.238C206.951 281.268 205.638 293.216 206.397 293.172C201.495 293.455 195.863 292.515 192.543 288.954C194.031 291.399 195.316 293.756 196.805 296.201C190.615 295.223 186.066 289.741 184.513 283.763Z" fill="#A072AE"/>
<path d="M159.077 267.48C156.887 266.25 154.255 265.583 152.224 267.54C149.232 270.425 153.483 283.844 159.935 280.583C159.935 280.583 169.278 293 176.134 296.512C182.992 300.023 187.876 298.268 190.444 295.759C193.012 293.251 201.768 282.962 203.344 272.055C203.906 268.167 203.304 260.517 203.429 258.886C203.813 253.87 205.813 249.751 201.649 245.815C197.443 241.837 191.617 239.431 185.687 239.232C178.218 238.982 170.753 242.172 165.806 247.496C160.342 253.38 159.395 260.024 159.077 267.48Z" fill="#FFC6C8"/>
<path d="M153.284 271.208C153.842 268.749 156.049 268.265 157.69 269.978C159.372 271.735 159.655 277.296 159.223 278.115C158.79 278.935 155.9 278.877 155.352 277.178C154.805 275.481 156.488 274.417 158.112 274.92C158.112 274.92 158.567 272.442 157.238 270.846C155.91 269.25 154.527 269.862 154.188 270.271C153.848 270.681 153.284 271.208 153.284 271.208Z" fill="#FF8B8C"/>
<path d="M171.144 260.332C171.768 259.78 172.432 259.266 173.126 258.778C173.826 258.299 174.572 257.868 175.364 257.517C176.151 257.165 176.974 256.787 177.845 256.723C178.708 256.651 179.575 256.717 180.365 257.039L180.354 257.152C179.932 257.313 179.53 257.416 179.134 257.524L177.971 257.83C177.215 258.042 176.431 258.106 175.663 258.349C174.901 258.59 174.148 258.899 173.408 259.253C172.661 259.599 171.939 260.01 171.21 260.421L171.144 260.332Z" fill="#471052"/>
<path d="M200.332 257.516C199.625 257.16 198.877 256.901 198.099 256.746C197.326 256.581 196.534 256.497 195.739 256.479C194.94 256.462 194.146 256.619 193.357 256.612C192.562 256.615 191.763 256.638 190.889 256.555L190.864 256.447C191.612 255.931 192.463 255.653 193.322 255.495C194.188 255.328 195.055 255.464 195.89 255.582C196.731 255.699 197.549 255.906 198.316 256.209C199.078 256.521 199.802 256.909 200.405 257.423L200.332 257.516Z" fill="#471052"/>
<path d="M178.98 264.742C178.95 263.681 178.388 262.871 177.724 262.933C177.06 262.995 176.545 263.906 176.574 264.967C176.604 266.027 177.166 266.837 177.83 266.775C178.495 266.713 179.008 265.803 178.98 264.742Z" fill="#471052"/>
<path d="M196.607 263.401C196.578 262.34 196.114 261.521 195.571 261.572C195.028 261.623 194.612 262.524 194.641 263.585C194.67 264.645 195.135 265.465 195.677 265.414C196.22 265.363 196.637 264.462 196.607 263.401Z" fill="#471052"/>
<path d="M184.5 275.053C186.028 276.063 188.281 276.041 189.944 275.001C189.755 275.818 189.37 276.615 188.534 276.905C187.697 277.195 186.773 277.11 186.003 276.774C185.235 276.439 184.986 275.704 184.5 275.053Z" fill="#FF8B8C"/>
<path d="M178.383 281.277C182.064 281.334 190.915 280.688 193.801 280.298C192.663 283.842 189.679 287.344 185.511 287.345C181.76 287.348 179.282 284.418 178.383 281.277Z" fill="#C47E75"/>
<path d="M181.761 286.188C183.224 285.759 184.714 285.98 185.314 286.156C185.314 286.156 187.26 284.861 190.09 285.712C188.802 286.699 187.271 287.345 185.512 287.345C184.064 287.346 182.811 286.904 181.761 286.188Z" fill="#FF8485"/>
<path d="M191.303 283.264C187.576 284.367 183.508 284.05 179.999 282.847C179.975 282.324 179.933 281.797 179.891 281.269C183.529 281.196 189.419 280.778 192.573 280.443C192.301 281.423 191.892 282.381 191.303 283.264Z" fill="white"/>
<path d="M162.758 255.936C168.763 255.693 174.72 254.436 180.268 252.242C181.324 249.92 181.36 247.861 181.518 245.337C183.027 247.967 183.924 250.912 184.08 253.904C187.576 253.688 191.089 253.51 194.586 253.295C195.565 250.661 195.684 247.949 195.529 245.16C196.711 247.78 197.304 251.079 197.707 253.903C199.818 253.19 202.492 254.231 204.698 254.606C207.43 248.821 207.251 238.34 201.47 233.953C195.841 229.679 186.063 228.516 179.182 229.462C164.547 231.476 153.044 243.025 153.953 257.413C154.471 265.622 158.804 273.384 165.017 279.107C161.322 272.104 160.59 263.494 162.758 255.936Z" fill="#A072AE"/>
<path d="M596 166.85C586.61 166.85 579 174.082 579 183.006C579 187.821 581.215 192.147 584.736 195.111C587.741 197.63 591.683 199.163 596 199.163C600.324 199.163 604.266 197.63 607.264 195.105C610.785 192.147 613 187.821 613 183.006C613 174.082 605.39 166.85 596 166.85Z" fill="#BDE9C8"/>
<path d="M605.933 193.794C605.063 193.177 603.483 192.153 601.763 191.396C600.043 190.646 599.032 188.884 599.307 187.109C599.307 187.083 599.313 187.058 599.32 187.026C599.32 187.026 603.235 184.507 602.693 182.052C602.693 182.052 602.814 182.058 602.994 182.046C604.721 181.893 604.828 179.45 603.122 179.19C603.108 179.19 603.088 179.183 603.075 179.183L603.021 178.916C603.543 177.18 604.815 171.919 600.966 172.428C600.966 172.428 598.202 168.084 592.359 170.176C586.51 172.263 588.036 177.243 588.036 177.243L588.759 179.228C587.186 179.597 587.333 181.906 589.006 182.052C589.187 182.065 589.314 182.058 589.314 182.058C588.765 184.514 592.681 187.033 592.681 187.033C592.687 187.064 592.687 187.09 592.694 187.115C592.962 188.89 591.951 190.652 590.238 191.403C588.511 192.159 586.938 193.19 586.068 193.801C585.546 194.163 585.084 194.602 584.729 195.117C587.741 197.63 591.683 199.163 596 199.163C600.324 199.163 604.266 197.63 607.265 195.105C606.916 194.596 606.455 194.157 605.933 193.794Z" fill="#BDE9C8"/>
<path d="M388.5 0.531738C375.519 0.531738 365 10.5293 365 22.8659C365 29.5221 368.062 35.5013 372.929 39.5989C377.083 43.0809 382.532 45.2 388.5 45.2C394.477 45.2 399.926 43.0809 404.071 39.5901C408.938 35.5013 412 29.5221 412 22.8659C412 10.5293 401.481 0.531738 388.5 0.531738Z" fill="#BDE9C8"/>
<path d="M402.23 37.7786C401.027 36.9256 398.844 35.51 396.466 34.4636C394.088 33.426 392.691 30.9904 393.071 28.5372C393.071 28.502 393.08 28.4668 393.089 28.4228C393.089 28.4228 398.502 24.9408 397.752 21.5468C397.752 21.5468 397.919 21.5555 398.169 21.538C400.556 21.3269 400.704 17.9504 398.344 17.5899C398.326 17.5899 398.298 17.5811 398.28 17.5811L398.206 17.2118C398.927 14.8113 400.685 7.53957 395.365 8.24301C395.365 8.24301 391.544 2.23742 383.467 5.1303C375.381 8.01439 377.49 14.8993 377.49 14.8993L378.49 17.6427C376.315 18.1527 376.519 21.3445 378.832 21.5468C379.082 21.5643 379.258 21.5555 379.258 21.5555C378.499 24.9496 383.911 28.4316 383.911 28.4316C383.921 28.4756 383.921 28.5108 383.93 28.5459C384.3 30.9992 382.903 33.4348 380.534 34.4724C378.147 35.5188 375.973 36.9432 374.77 37.7873C374.049 38.2885 373.41 38.8953 372.92 39.6075C377.083 43.0807 382.533 45.1998 388.5 45.1998C394.477 45.1998 399.926 43.0807 404.071 39.5899C403.59 38.8865 402.952 38.2798 402.23 37.7786Z" fill="#BDE9C8"/>
<path d="M71 156.395C76.5236 156.395 81 160.65 81 165.899C81 168.732 79.6969 171.276 77.626 173.02C75.8583 174.501 73.5394 175.403 71 175.403C68.4567 175.403 66.1378 174.501 64.374 173.016C62.3032 171.276 61 168.732 61 165.899C61 160.65 65.4764 156.395 71 156.395Z" fill="#BDE9C8"/>
<path d="M65.1574 172.245C65.6693 171.882 66.5984 171.28 67.6102 170.834C68.622 170.393 69.2165 169.356 69.0551 168.312C69.0551 168.297 69.0511 168.282 69.0472 168.264C69.0472 168.264 66.7441 166.782 67.063 165.338C67.063 165.338 66.9921 165.342 66.8858 165.334C65.87 165.244 65.807 163.807 66.811 163.654C66.8189 163.654 66.8307 163.65 66.8385 163.65L66.87 163.493C66.563 162.472 65.8149 159.377 68.0787 159.677C68.0787 159.677 69.7047 157.121 73.1417 158.352C76.5826 159.579 75.685 162.509 75.685 162.509L75.2598 163.676C76.185 163.894 76.0984 165.252 75.1141 165.338C75.0078 165.345 74.933 165.342 74.933 165.342C75.2559 166.786 72.9527 168.268 72.9527 168.268C72.9488 168.286 72.9488 168.301 72.9448 168.316C72.7874 169.36 73.3819 170.397 74.3897 170.838C75.4055 171.283 76.3307 171.889 76.8425 172.249C77.1496 172.462 77.4212 172.72 77.6299 173.023C75.8582 174.501 73.5393 175.403 71 175.403C68.4567 175.403 66.1378 174.501 64.374 173.016C64.5787 172.716 64.8504 172.458 65.1574 172.245Z" fill="#BDE9C8"/>
<path d="M179.5 486.18C168.177 486.18 159 494.901 159 505.663C159 511.469 161.671 516.685 165.917 520.26C169.541 523.297 174.294 525.146 179.5 525.146C184.714 525.146 189.468 523.297 193.083 520.252C197.329 516.685 200 511.469 200 505.663C200 494.901 190.823 486.18 179.5 486.18Z" fill="#BDE9C8"/>
<path d="M191.477 518.672C190.427 517.928 188.523 516.693 186.449 515.78C184.374 514.875 183.156 512.75 183.487 510.61C183.487 510.58 183.495 510.549 183.503 510.511C183.503 510.511 188.224 507.473 187.57 504.512C187.57 504.512 187.716 504.52 187.934 504.505C190.016 504.32 190.145 501.375 188.087 501.061C188.071 501.061 188.047 501.053 188.03 501.053L187.966 500.731C188.595 498.637 190.129 492.293 185.488 492.907C185.488 492.907 182.155 487.668 175.109 490.191C168.055 492.707 169.895 498.713 169.895 498.713L170.767 501.107C168.87 501.551 169.048 504.336 171.065 504.512C171.283 504.528 171.437 504.52 171.437 504.52C170.775 507.481 175.496 510.518 175.496 510.518C175.504 510.557 175.504 510.587 175.513 510.618C175.835 512.758 174.617 514.883 172.551 515.788C170.468 516.701 168.572 517.943 167.522 518.68C166.893 519.117 166.336 519.646 165.908 520.267C169.54 523.297 174.294 525.146 179.5 525.146C184.713 525.146 189.467 523.297 193.083 520.252C192.663 519.638 192.106 519.109 191.477 518.672Z" fill="#BDE9C8"/>
<circle opacity="0.4" cx="382" cy="375.041" r="297.5" stroke="#8A8FB9"/>
<circle opacity="0.4" cx="381.5" cy="375.541" r="287" stroke="#8A8FB9"/>
<circle cx="674.5" cy="431.541" r="5.5" fill="#BDE9C8"/>
<circle cx="486.5" cy="606.541" r="5.5" fill="#BDE9C8"/>
<circle opacity="0.75" cx="382" cy="375.041" r="252.5" stroke="#BDE9C8"/>
<circle opacity="0.75" cx="388.5" cy="375.541" r="199" stroke="#BDE9C8"/>
<circle cx="635" cy="397.041" r="9" fill="#BDE9C8"/>
<circle cx="238" cy="131.041" r="9" fill="#BDE9C8"/>
<circle cx="398" cy="717.041" r="9" fill="#BDE9C8"/>
<circle cx="40" cy="366.041" r="9" fill="#BDE9C8"/>
<path d="M365 601.041H304V631.847H347.471L343.966 644.041L365 631.847V601.041Z" fill="#BDE9C8"/>
<path d="M573 149.041H551V161.22H566.678L565.414 166.041L573 161.22V149.041Z" fill="#BDE9C8"/>
<circle cx="381.5" cy="375.541" r="341" stroke="#BDE9C8"/>
<circle cx="283" cy="206.041" r="3" fill="#BDE9C8"/>
</svg>
