<svg width="70" height="74" viewBox="0 0 70 74" fill="none" xmlns="http://www.w3.org/2000/svg">
<g clip-path="url(#clip0_3_511)">
<path d="M65.3413 27.6449L66.3742 25.6646C66.6492 25.1373 66.47 24.4729 65.9738 24.1808C65.5606 23.9373 65.059 24.0297 64.7436 24.3711C60.2417 10.1676 47.6703 0.454926 33.3694 0.454926C24.5255 0.454926 16.211 4.1147 9.95746 10.7603C3.70383 17.4058 0.259888 26.2413 0.259888 35.6395C0.259888 43.6386 2.72184 51.1766 7.37937 57.4384C11.8966 63.5117 18.2538 67.889 25.2799 69.7641C26.7882 70.1667 28.3508 70.416 30.057 70.5262C30.0782 70.5275 30.0993 70.5282 30.1203 70.5282C30.6592 70.5282 31.1114 70.0821 31.1446 69.5029C31.1789 68.9011 30.7479 68.3838 30.1816 68.3471C28.6037 68.2452 27.164 68.0162 25.7803 67.6468C11.9639 63.9592 2.31426 50.7975 2.31426 35.6395C2.31426 17.4425 16.2456 2.63804 33.3694 2.63804C46.7413 2.63804 58.5011 11.6906 62.7573 24.9437C62.3375 24.8651 61.8991 25.0706 61.681 25.4887C61.406 26.0159 61.5852 26.6804 62.0813 26.9725L63.916 28.0533C63.9706 28.088 64.3263 28.305 64.7559 28.159C65.1311 28.0319 65.3046 27.7158 65.3413 27.6449Z" fill="#D3CDBF"/>
<path d="M50.8418 11.8548L11.124 54.0617C10.7229 54.4882 10.7229 55.1792 11.124 55.6055C11.3245 55.8186 11.5875 55.9251 11.8503 55.9251C12.1132 55.9251 12.3761 55.8186 12.5766 55.6055L52.2944 13.3985C52.6955 12.9721 52.6955 12.2811 52.2944 11.8548C51.8932 11.4288 51.2428 11.4288 50.8418 11.8548Z" fill="#D3CDBF"/>
<path d="M13.4049 19.007C9.194 19.007 7.7632 24.8315 9.98356 24.8315C10.5506 24.8315 11.0107 24.3432 11.0107 23.74C11.0107 22.3371 12.0848 21.1959 13.4048 21.1959C15.607 21.1959 16.6414 24.1137 14.9772 25.6586L9.30494 30.9256C8.59248 31.5872 9.03431 32.839 9.98082 32.839H16.8287C17.396 32.839 17.8559 32.3448 17.8559 31.7418C17.8559 31.1388 17.396 30.6503 16.8287 30.6503H12.7274L16.3322 27.307C19.4175 24.4457 17.5145 19.007 13.4049 19.007Z" fill="#46525E"/>
<path d="M28.1948 27.7391H26.488L26.4827 20.1001C26.4821 19.4976 26.0225 19.0096 25.4555 19.0096C24.8885 19.0096 24.4283 19.498 24.4283 20.1011V27.7391H20.7437C20.765 27.6742 22.4428 22.5541 22.4594 22.4877C22.8235 21.0151 20.9347 20.4902 20.5135 21.7798L18.3247 28.4784C18.0932 29.1871 18.5893 29.9279 19.295 29.9279H24.428C24.4278 31.797 24.3398 32.1045 24.7302 32.519C25.3763 33.2061 26.4879 32.7137 26.4879 31.7444V29.9281H28.1947C28.7621 29.9281 29.2218 29.4395 29.2218 28.8365C29.222 28.2114 28.7488 27.7391 28.1948 27.7391Z" fill="#46525E"/>
<path d="M44.8818 36.9842C44.6948 36.6628 44.3646 36.4674 44.0091 36.4674H37.7183C37.1516 36.4674 36.6923 36.9555 36.6923 37.5578C36.6923 38.16 37.1516 38.6482 37.7183 38.6482H42.35L37.6181 48.7218C37.365 49.2606 37.5708 49.9154 38.0779 50.1844C38.2251 50.2625 38.3814 50.2995 38.5353 50.2995C38.9119 50.2995 39.2746 50.0783 39.4541 49.6959L44.9271 38.0449C45.086 37.7067 45.0689 37.3056 44.8818 36.9842Z" fill="#46525E"/>
<path d="M60.288 31.3025C58.5192 31.6442 57.2344 33.2811 57.2344 35.1915V38.7804C57.2344 40.6913 58.5204 42.3288 60.2896 42.6705L60.7002 42.7499C58.8286 53.4265 51.1199 61.9485 41.2384 64.4204C40.9869 62.4612 39.4123 61.0006 37.5516 61.0006H33.0905C31.2299 61.0006 29.6554 62.4608 29.4041 64.4198C28.673 70.117 32.7962 74.0943 37.2822 73.8216C54.5701 72.7706 68.4018 58.0312 69.3084 39.618C69.5551 34.6078 65.4372 30.3075 60.288 31.3025Z" fill="#6C7A88"/>
<path d="M37.2822 73.8212C54.5701 72.7702 68.4017 58.0308 69.3084 39.6176C69.3837 38.0873 69.0502 36.6244 68.4062 35.3573C66.6522 35.7744 65.3037 37.3896 65.2053 39.3896C64.4067 55.6066 52.3015 68.535 37.0475 69.4622C35.1677 69.5765 33.6566 71.0172 33.2704 72.8795C34.476 73.5662 35.8605 73.9076 37.2822 73.8212Z" fill="#596775"/>
</g>
<defs>
<clipPath id="clip0_3_511">
<rect width="69.0591" height="73.3871" fill="white" transform="translate(0.259888 0.45166)"/>
</clipPath>
</defs>
</svg>
